<svg width="375" height="731" viewBox="0 0 375 731" fill="none" xmlns="http://www.w3.org/2000/svg">
<path fill-rule="evenodd" clip-rule="evenodd" d="M-237.389 1.3062C-237.347 1.5883 -237.347 1.58826 -237.346 1.58814L-237.342 1.58751L-237.323 1.58488C-237.306 1.58253 -237.28 1.57904 -237.245 1.57454C-237.176 1.56555 -237.071 1.55257 -236.931 1.5368C-236.651 1.50528 -236.23 1.46263 -235.671 1.41863C-234.554 1.33061 -232.883 1.23712 -230.677 1.21613C-226.264 1.17416 -219.709 1.4222 -211.152 2.58409C-194.039 4.90784 -168.915 10.8872 -136.906 25.5148C-72.886 54.77 18.6877 118.622 128.818 257.023C238.99 395.476 330.631 459.393 394.75 488.694C426.81 503.345 451.987 509.34 469.157 511.671C477.742 512.837 484.324 513.087 488.764 513.044C490.983 513.023 492.667 512.929 493.798 512.84C494.363 512.796 494.79 512.752 495.076 512.72C495.219 512.704 495.327 512.691 495.4 512.681L495.431 512.677L495.482 512.67L495.504 512.667L495.509 512.667C495.51 512.666 495.51 512.666 495.509 512.657C495.507 512.636 495.498 512.575 495.47 512.384C495.429 512.102 495.429 512.102 495.428 512.102L495.424 512.103L495.405 512.105C495.388 512.108 495.362 512.111 495.327 512.116C495.257 512.125 495.152 512.138 495.012 512.154C494.823 512.175 494.57 512.201 494.253 512.23C494.101 512.243 493.934 512.257 493.753 512.272C492.635 512.36 490.965 512.453 488.758 512.474C484.346 512.516 477.791 512.268 469.234 511.106C452.121 508.782 426.997 502.803 394.987 488.175C330.968 458.92 239.394 395.068 129.264 256.668C19.0919 118.214 -72.5492 54.297 -136.669 24.9962C-168.728 10.3458 -193.906 4.35051 -211.076 2.01911C-219.66 0.853433 -226.243 0.603767 -230.682 0.645991C-232.902 0.667104 -234.586 0.761188 -235.716 0.850217C-236.281 0.89473 -236.708 0.937981 -236.995 0.970215C-237.138 0.986331 -237.246 0.999693 -237.318 1.00908C-237.355 1.01377 -237.382 1.01748 -237.401 1.02003L-237.422 1.02299L-237.427 1.02378C-237.429 1.02398 -237.43 1.02411 -237.389 1.3062ZM-241.201 6.76002C-241.202 6.76014 -241.203 6.76018 -241.244 6.47808C-241.285 6.19599 -241.284 6.19586 -241.283 6.19566L-241.277 6.19486L-241.256 6.19191C-241.237 6.18936 -241.21 6.18565 -241.173 6.18096C-241.101 6.17157 -240.993 6.15821 -240.85 6.14209C-240.563 6.10986 -240.136 6.06661 -239.571 6.0221C-238.441 5.93307 -236.757 5.83898 -234.537 5.81787C-230.098 5.77565 -223.515 6.02531 -214.931 7.19099C-197.761 9.52239 -172.584 15.5177 -140.524 30.1681C-76.4043 59.4689 15.2367 123.386 125.409 261.84C235.539 400.24 327.113 464.092 391.132 493.347C423.142 507.975 448.265 513.954 465.379 516.278C473.936 517.44 480.491 517.688 484.903 517.646C487.109 517.625 488.78 517.532 489.898 517.444C490.457 517.4 490.877 517.357 491.157 517.325C491.232 517.317 491.297 517.309 491.352 517.303C491.4 517.297 491.44 517.292 491.472 517.288L491.497 517.284L491.55 517.277L491.568 517.275L491.573 517.274C491.573 517.274 491.573 517.274 491.575 517.284C491.578 517.305 491.588 517.367 491.615 517.556C491.643 517.746 491.652 517.808 491.654 517.829C491.655 517.838 491.654 517.838 491.654 517.838L491.648 517.839L491.627 517.842C491.609 517.845 491.581 517.848 491.545 517.853C491.472 517.863 491.364 517.876 491.221 517.892C491.078 517.908 490.899 517.927 490.686 517.947C490.473 517.968 490.225 517.99 489.943 518.012C488.812 518.101 487.128 518.195 484.909 518.216C480.469 518.258 473.887 518.009 465.302 516.843C448.132 514.512 422.955 508.516 390.895 493.866C326.776 464.565 235.135 400.648 124.963 262.195C14.8325 123.794 -76.7411 59.9419 -140.761 30.6867C-172.771 16.0591 -197.894 10.0797 -215.007 7.75597C-223.564 6.59408 -230.119 6.34604 -234.532 6.38801C-236.738 6.409 -238.409 6.50249 -239.526 6.5905C-240.085 6.63451 -240.506 6.67715 -240.786 6.70868C-240.926 6.72445 -241.031 6.73743 -241.1 6.74642C-241.135 6.75092 -241.161 6.75441 -241.178 6.75676L-241.197 6.75939L-241.201 6.76002ZM-245.099 11.65C-245.058 11.9321 -245.058 11.932 -245.057 11.9319L-245.052 11.9313L-245.033 11.9286L-244.992 11.9231L-244.956 11.9183C-244.886 11.9093 -244.781 11.8963 -244.641 11.8806C-244.361 11.849 -243.941 11.8064 -243.382 11.7624C-242.264 11.6744 -240.593 11.5809 -238.387 11.5599C-233.975 11.5179 -227.42 11.766 -218.863 12.9279C-201.749 15.2516 -176.626 21.231 -144.616 35.8586C-80.5964 65.1138 10.9773 128.966 121.107 267.366C231.279 405.82 322.921 469.737 387.04 499.038C419.1 513.688 444.277 519.683 461.447 522.015C470.032 523.181 476.614 523.43 481.053 523.388C483.273 523.367 484.957 523.273 486.087 523.184C486.653 523.139 487.079 523.096 487.366 523.064C487.427 523.057 487.481 523.051 487.529 523.045C487.595 523.037 487.648 523.03 487.69 523.025C487.726 523.02 487.753 523.017 487.772 523.014L487.793 523.011L487.799 523.01C487.799 523.01 487.8 523.01 487.799 523C487.796 522.98 487.788 522.918 487.76 522.728L487.726 522.499C487.718 522.446 487.718 522.446 487.718 522.446L487.713 522.447L487.694 522.449C487.677 522.451 487.651 522.455 487.617 522.459C487.547 522.468 487.442 522.481 487.302 522.497C487.022 522.529 486.601 522.571 486.043 522.615C484.925 522.703 483.254 522.797 481.048 522.818C476.635 522.86 470.081 522.612 461.524 521.45C444.41 519.126 419.287 513.147 387.277 498.519C323.257 469.264 231.684 405.412 121.554 267.011C11.3815 128.558 -80.2596 64.6408 -144.379 35.34C-176.439 20.6896 -201.616 14.6943 -218.786 12.3629C-227.371 11.1972 -233.953 10.9475 -238.392 10.9898C-240.612 11.0109 -242.296 11.1049 -243.426 11.194C-243.992 11.2385 -244.419 11.2817 -244.705 11.314C-244.848 11.3301 -244.956 11.3435 -245.029 11.3528C-245.065 11.3575 -245.093 11.3612 -245.111 11.3638L-245.132 11.3667L-245.138 11.3675C-245.139 11.3677 -245.14 11.3679 -245.099 11.65ZM-248.912 17.1038C-248.913 17.1039 -248.913 17.1039 -248.954 16.8218C-248.995 16.5397 -248.994 16.5396 -248.993 16.5394L-248.987 16.5386L-248.966 16.5357C-248.948 16.5331 -248.92 16.5294 -248.884 16.5247C-248.811 16.5153 -248.703 16.502 -248.56 16.4859C-248.274 16.4536 -247.847 16.4104 -247.282 16.3659C-246.151 16.2768 -244.467 16.1827 -242.248 16.1616C-237.808 16.1194 -231.226 16.3691 -222.641 17.5348C-205.471 19.8662 -180.294 25.8614 -148.234 40.5119C-84.1148 69.8127 7.5263 133.73 117.698 272.183C227.829 410.584 319.402 474.436 383.422 503.691C415.432 518.319 440.555 524.298 457.668 526.622C466.225 527.784 472.78 528.032 477.193 527.99C479.399 527.969 481.07 527.875 482.187 527.787C482.32 527.777 482.445 527.767 482.561 527.756C482.676 527.746 482.783 527.737 482.882 527.727C483.11 527.706 483.298 527.686 483.447 527.669C483.492 527.664 483.534 527.659 483.572 527.655L483.665 527.643C483.703 527.639 483.735 527.635 483.761 527.631C483.796 527.627 483.822 527.623 483.839 527.621L483.858 527.618L483.862 527.618C483.863 527.618 483.863 527.618 483.905 527.9L483.923 528.028L483.932 528.087C483.937 528.124 483.94 528.147 483.942 528.161L483.943 528.172C483.944 528.182 483.944 528.182 483.944 528.182L483.938 528.183L483.917 528.186C483.898 528.188 483.871 528.192 483.834 528.197C483.762 528.206 483.654 528.22 483.511 528.236C483.224 528.268 482.797 528.311 482.232 528.356C481.102 528.445 479.418 528.539 477.198 528.56C472.759 528.602 466.176 528.352 457.592 527.187C440.422 524.855 415.245 518.86 383.185 504.21C319.065 474.909 227.424 410.992 117.252 272.538C7.12205 134.138 -84.4516 70.2856 -148.471 41.0304C-180.481 26.4028 -205.604 20.4235 -222.718 18.0997C-231.275 16.9378 -237.83 16.6898 -242.242 16.7318C-244.449 16.7528 -246.119 16.8462 -247.237 16.9343C-247.796 16.9783 -248.216 17.0209 -248.496 17.0524C-248.636 17.0682 -248.741 17.0812 -248.811 17.0902L-248.859 17.0965L-248.889 17.1005L-248.907 17.1032L-248.912 17.1038ZM-252.809 21.994C-252.768 22.2761 -252.768 22.2761 -252.767 22.2759L-252.763 22.2753L-252.744 22.2727C-252.727 22.2703 -252.701 22.2668 -252.666 22.2623C-252.597 22.2534 -252.492 22.2404 -252.352 22.2246C-252.071 22.1931 -251.651 22.1504 -251.092 22.1064C-249.974 22.0184 -248.304 21.9249 -246.097 21.9039C-241.685 21.862 -235.13 22.11 -226.573 23.2719C-209.46 25.5956 -184.336 31.575 -152.326 46.2026C-88.3068 75.4578 3.26681 139.31 113.397 277.71C223.569 416.164 315.21 480.081 379.33 509.382C411.389 524.032 436.567 530.028 453.736 532.359C462.321 533.525 468.904 533.774 473.343 533.732C475.563 533.711 477.247 533.617 478.377 533.528C478.942 533.483 479.369 533.44 479.655 533.408C479.799 533.392 479.907 533.378 479.979 533.369C480.016 533.364 480.043 533.361 480.061 533.358L480.083 533.355L480.088 533.354C480.089 533.354 480.089 533.354 480.088 533.344C480.087 533.338 480.086 533.326 480.083 533.305L480.071 533.221L480.049 533.072C480.008 532.79 480.008 532.79 480.007 532.79L480.003 532.791L479.984 532.793C479.967 532.796 479.941 532.799 479.906 532.804C479.837 532.813 479.732 532.826 479.592 532.841C479.311 532.873 478.891 532.915 478.332 532.96C477.215 533.048 475.544 533.141 473.338 533.162C468.925 533.204 462.37 532.956 453.813 531.794C436.7 529.47 411.576 523.491 379.567 508.863C315.547 479.608 223.973 415.756 113.843 277.355C3.67106 138.902 -87.97 74.9848 -152.089 45.684C-184.149 31.0336 -209.327 25.0383 -226.496 22.7069C-235.081 21.5412 -241.664 21.2916 -246.103 21.3338C-248.323 21.3549 -250.006 21.449 -251.137 21.538C-251.702 21.5825 -252.129 21.6258 -252.415 21.658C-252.559 21.6741 -252.667 21.6875 -252.739 21.6969C-252.775 21.7016 -252.803 21.7053 -252.821 21.7078L-252.843 21.7108L-252.848 21.7116C-252.85 21.7118 -252.851 21.7119 -252.809 21.994ZM-256.622 27.4478C-256.623 27.4479 -256.623 27.448 -256.665 27.1659C-256.706 26.8838 -256.705 26.8837 -256.703 26.8835L-256.698 26.8827L-256.677 26.8797L-256.631 26.8736L-256.594 26.8688C-256.522 26.8594 -256.414 26.846 -256.271 26.8299C-255.984 26.7977 -255.557 26.7544 -254.992 26.7099C-253.862 26.6209 -252.178 26.5268 -249.958 26.5057C-245.519 26.4634 -238.936 26.7131 -230.352 27.8788C-213.182 30.2102 -188.004 36.2055 -155.945 50.8559C-91.8252 80.1567 -0.184121 144.074 109.988 282.527C220.118 420.928 311.692 484.78 375.711 514.035C407.721 528.663 432.845 534.642 449.958 536.966C458.515 538.128 465.07 538.376 469.482 538.334C471.689 538.313 473.359 538.219 474.477 538.131C475.036 538.087 475.456 538.045 475.736 538.013C475.876 537.997 475.981 537.984 476.051 537.975C476.086 537.971 476.112 537.967 476.129 537.965L476.148 537.962L476.152 537.962C476.153 537.962 476.153 537.962 476.194 538.244C476.222 538.434 476.231 538.496 476.233 538.516C476.234 538.526 476.234 538.526 476.233 538.526L476.228 538.527L476.206 538.53C476.188 538.533 476.16 538.536 476.124 538.541L476.071 538.548L476.022 538.554C475.961 538.561 475.887 538.57 475.8 538.58C475.514 538.612 475.087 538.655 474.522 538.7C473.391 538.789 471.707 538.883 469.488 538.904C465.048 538.946 458.466 538.697 449.881 537.531C432.711 535.199 407.534 529.204 375.474 514.554C311.355 485.253 219.714 421.336 109.542 282.882C-0.588338 144.482 -92.162 80.6297 -156.182 51.3745C-188.191 36.7469 -213.315 30.7675 -230.428 28.4438C-238.985 27.2819 -245.54 27.0338 -249.953 27.0758C-252.159 27.0968 -253.83 27.1903 -254.947 27.2783C-255.506 27.3223 -255.927 27.365 -256.207 27.3965C-256.347 27.4122 -256.452 27.4252 -256.521 27.4342L-256.566 27.4401L-256.599 27.4446L-256.618 27.4472L-256.622 27.4478ZM-260.52 32.3378C-260.479 32.6199 -260.478 32.6198 -260.477 32.6197L-260.473 32.6191L-260.454 32.6164L-260.445 32.6152L-260.376 32.6061C-260.307 32.5971 -260.202 32.5841 -260.062 32.5684C-259.782 32.5368 -259.361 32.4942 -258.802 32.4502C-257.685 32.3622 -256.014 32.2687 -253.808 32.2477C-249.395 32.2057 -242.84 32.4538 -234.283 33.6157C-217.17 35.9394 -192.047 41.9188 -160.037 56.5464C-96.0172 85.8016 -4.44355 149.654 105.687 288.054C215.859 426.507 307.5 490.425 371.619 519.726C403.679 534.376 428.856 540.371 446.026 542.703C454.611 543.868 461.193 544.118 465.633 544.076C467.852 544.055 469.536 543.961 470.667 543.872C471.232 543.827 471.659 543.784 471.945 543.752L472.038 543.741L472.116 543.732C472.178 543.724 472.229 543.718 472.269 543.713L472.33 543.705L472.351 543.702L472.372 543.699L472.378 543.698C472.378 543.698 472.378 543.698 472.378 543.698L472.378 543.697C472.378 543.695 472.378 543.693 472.378 543.688C472.375 543.668 472.367 543.606 472.339 543.416L472.317 543.262L472.308 543.204L472.3 543.152C472.297 543.134 472.297 543.134 472.297 543.134L472.292 543.134L472.273 543.137C472.256 543.139 472.231 543.143 472.196 543.147C472.126 543.156 472.021 543.169 471.881 543.185C471.601 543.217 471.181 543.259 470.622 543.303C469.504 543.391 467.833 543.485 465.627 543.506C461.215 543.548 454.66 543.3 446.103 542.138C428.989 539.814 403.866 533.835 371.856 519.207C307.837 489.952 216.263 426.1 106.133 287.699C-4.0393 149.246 -95.6804 85.3286 -159.8 56.0278C-191.86 41.3774 -217.037 35.3821 -234.207 33.0507C-242.792 31.885 -249.374 31.6353 -253.813 31.6776C-256.033 31.6987 -257.717 31.7927 -258.847 31.8818C-259.412 31.9263 -259.839 31.9695 -260.126 32.0018C-260.269 32.0179 -260.377 32.0313 -260.45 32.0406C-260.486 32.0453 -260.513 32.049 -260.532 32.0516L-260.553 32.0545L-260.559 32.0553C-260.56 32.0555 -260.561 32.0557 -260.52 32.3378ZM-264.333 37.7916C-264.334 37.7917 -264.334 37.7917 -264.375 37.5096C-264.416 37.2275 -264.415 37.2274 -264.414 37.2272L-264.408 37.2264L-264.387 37.2235C-264.369 37.2209 -264.341 37.2172 -264.305 37.2125C-264.232 37.2031 -264.124 37.1898 -263.981 37.1737C-263.695 37.1414 -263.268 37.0982 -262.702 37.0537C-261.572 36.9646 -259.888 36.8705 -257.668 36.8494C-253.229 36.8072 -246.647 37.0569 -238.062 38.2226C-220.892 40.554 -195.715 46.5492 -163.655 61.1997C-99.5356 90.5005 -7.89455 154.418 102.278 292.871C212.408 431.272 303.981 495.124 368.001 524.379C400.011 539.007 425.134 544.986 442.248 547.31C450.804 548.472 457.359 548.72 461.772 548.678C463.978 548.657 465.649 548.563 466.767 548.475C467.325 548.431 467.746 548.388 468.026 548.357C468.166 548.341 468.271 548.328 468.341 548.319C468.375 548.315 468.401 548.311 468.418 548.309L468.437 548.306L468.442 548.306C468.442 548.305 468.443 548.305 468.484 548.587C468.512 548.778 468.52 548.84 468.522 548.86C468.524 548.87 468.523 548.87 468.523 548.87L468.517 548.871L468.496 548.874L468.454 548.879L468.414 548.885C468.388 548.888 468.359 548.892 468.325 548.896L468.264 548.903C468.213 548.909 468.155 548.916 468.09 548.924C467.803 548.956 467.377 548.999 466.811 549.044C465.681 549.133 463.997 549.227 461.777 549.248C457.338 549.29 450.756 549.04 442.171 547.875C425.001 545.543 399.824 539.548 367.764 524.897C303.644 495.597 212.003 431.679 101.831 293.226C-8.29876 154.826 -99.8724 90.9734 -163.892 61.7182C-195.902 47.0906 -221.025 41.1113 -238.139 38.7875C-246.696 37.6256 -253.251 37.3776 -257.663 37.4196C-259.869 37.4406 -261.54 37.5341 -262.658 37.6221C-263.217 37.6661 -263.637 37.7087 -263.917 37.7402C-264.057 37.756 -264.162 37.769 -264.232 37.778C-264.266 37.7825 -264.292 37.786 -264.309 37.7883L-264.328 37.791L-264.333 37.7916ZM-268.19 42.9545C-268.188 42.9638 -268.188 42.9638 -268.188 42.9637L-268.183 42.9631L-268.165 42.9605C-268.148 42.9581 -268.122 42.9546 -268.087 42.9501C-268.017 42.9412 -267.912 42.9282 -267.772 42.9124C-267.492 42.8809 -267.072 42.8382 -266.513 42.7942C-265.395 42.7062 -263.725 42.6127 -261.518 42.5917C-257.106 42.5498 -250.551 42.7978 -241.994 43.9597C-224.88 46.2834 -199.757 52.2628 -167.747 66.8904C-103.728 96.1456 -12.1539 159.998 97.9762 298.398C208.148 436.851 299.789 500.769 363.909 530.07C395.969 544.72 421.146 550.715 438.316 553.047C446.9 554.212 453.483 554.462 457.922 554.42C460.142 554.399 461.826 554.305 462.956 554.216C463.521 554.171 463.948 554.128 464.235 554.096C464.378 554.08 464.486 554.066 464.558 554.057L464.606 554.051L464.641 554.046L464.662 554.043L464.668 554.042C464.668 554.042 464.668 554.042 464.667 554.032C464.666 554.024 464.664 554.009 464.661 553.982C464.655 553.941 464.645 553.874 464.629 553.76C464.587 553.478 464.587 553.478 464.586 553.478L464.582 553.478L464.563 553.481C464.546 553.483 464.52 553.487 464.485 553.491C464.416 553.5 464.311 553.513 464.171 553.529C463.891 553.561 463.47 553.603 462.911 553.647C461.794 553.735 460.123 553.829 457.917 553.85C453.504 553.892 446.949 553.644 438.392 552.482C421.279 550.158 396.156 544.179 364.146 529.551C300.126 500.296 208.552 436.444 98.4223 298.043C-11.7497 159.59 -103.391 95.6726 -167.51 66.3718C-199.57 51.7214 -224.747 45.7261 -241.917 43.3947C-250.502 42.229 -257.084 41.9794 -261.524 42.0216C-263.743 42.0427 -265.427 42.1368 -266.558 42.2258C-267.123 42.2703 -267.55 42.3136 -267.836 42.3458C-267.979 42.3619 -268.087 42.3753 -268.16 42.3847C-268.196 42.3894 -268.224 42.3931 -268.242 42.3956L-268.263 42.3986L-268.269 42.3994C-268.27 42.3996 -268.271 42.3997 -268.23 42.6818L-268.197 42.9067L-268.19 42.9545ZM-272.043 48.1356C-272.044 48.1357 -272.044 48.1358 -272.085 47.8537C-272.127 47.5716 -272.126 47.5715 -272.124 47.5713L-272.119 47.5705L-272.098 47.5675L-272.068 47.5635L-272.015 47.5566C-271.943 47.5472 -271.835 47.5338 -271.691 47.5177C-271.405 47.4855 -270.978 47.4422 -270.413 47.3977C-269.282 47.3087 -267.599 47.2146 -265.379 47.1935C-260.94 47.1512 -254.357 47.4009 -245.772 48.5666C-228.603 50.898 -203.425 56.8933 -171.366 71.5437C-107.246 100.845 -15.605 164.762 94.5671 303.215C204.697 441.616 296.271 505.468 360.291 534.723C392.3 549.351 417.424 555.33 434.537 557.654C443.094 558.816 449.649 559.064 454.062 559.022C456.268 559.001 457.939 558.907 459.056 558.819C459.615 558.775 460.036 558.733 460.316 558.701C460.456 558.685 460.561 558.672 460.63 558.663L460.667 558.658L460.708 558.653L460.727 558.65L460.731 558.65C460.732 558.649 460.732 558.649 460.773 558.932C460.801 559.122 460.81 559.184 460.812 559.204C460.813 559.214 460.813 559.214 460.812 559.214L460.807 559.215L460.786 559.218C460.767 559.22 460.74 559.224 460.703 559.229C460.631 559.238 460.523 559.251 460.379 559.268C460.093 559.3 459.666 559.343 459.101 559.388C457.97 559.477 456.287 559.571 454.067 559.592C449.628 559.634 443.045 559.384 434.46 558.219C417.291 555.887 392.113 549.892 360.054 535.242C295.934 505.941 204.293 442.023 94.121 303.57C-16.0092 165.17 -107.583 101.317 -171.603 72.0623C-203.612 57.4347 -228.736 51.4553 -245.849 49.1316C-254.406 47.9697 -260.961 47.7216 -265.373 47.7636C-267.58 47.7846 -269.25 47.8781 -270.368 47.9661C-270.927 48.0101 -271.347 48.0528 -271.628 48.0843C-271.768 48.1001 -271.873 48.113 -271.942 48.122C-271.977 48.1265 -272.003 48.13 -272.02 48.1324L-272.039 48.135L-272.043 48.1356ZM-275.941 53.0256C-275.899 53.3077 -275.899 53.3076 -275.898 53.3075L-275.894 53.3069L-275.875 53.3042C-275.858 53.3019 -275.832 53.2984 -275.797 53.2939C-275.728 53.2849 -275.623 53.2719 -275.483 53.2562C-275.203 53.2246 -274.782 53.182 -274.223 53.138C-273.106 53.05 -271.435 52.9565 -269.229 52.9355C-264.816 52.8935 -258.261 53.1416 -249.704 54.3035C-232.591 56.6272 -207.468 62.6066 -175.458 77.2342C-111.438 106.489 -19.8644 170.341 90.2658 308.742C200.438 447.195 292.079 511.113 356.198 540.413C388.258 555.064 413.435 561.059 430.605 563.391C439.19 564.556 445.772 564.806 450.212 564.764C452.431 564.743 454.115 564.649 455.246 564.559C455.811 564.515 456.238 564.472 456.524 564.439C456.667 564.423 456.775 564.41 456.848 564.401C456.884 564.396 456.912 564.392 456.93 564.39L456.952 564.387L456.957 564.386C456.957 564.386 456.958 564.386 456.957 564.384C456.957 564.383 456.957 564.38 456.957 564.376C456.956 564.367 456.953 564.348 456.948 564.311L456.938 564.239L456.918 564.103L456.885 563.88C456.877 563.821 456.876 563.821 456.876 563.822L456.872 563.822L456.853 563.825L456.811 563.83L456.775 563.835C456.705 563.844 456.6 563.857 456.46 563.873C456.18 563.904 455.76 563.947 455.201 563.991C454.083 564.079 452.413 564.173 450.206 564.194C445.794 564.236 439.239 563.987 430.682 562.826C413.569 560.502 388.445 554.522 356.435 539.895C292.416 510.64 200.842 446.788 90.7119 308.387C-19.4601 169.934 -111.101 106.016 -175.221 76.7156C-207.28 62.0652 -232.458 56.0699 -249.628 53.7385C-258.212 52.5728 -264.795 52.3231 -269.234 52.3654C-271.454 52.3865 -273.138 52.4806 -274.268 52.5696C-274.833 52.6141 -275.26 52.6573 -275.547 52.6896C-275.69 52.7057 -275.798 52.7191 -275.87 52.7284C-275.907 52.7331 -275.934 52.7368 -275.953 52.7394L-275.974 52.7423L-275.979 52.7431C-275.981 52.7433 -275.982 52.7435 -275.941 53.0256ZM-279.754 58.4794C-279.754 58.4795 -279.755 58.4795 -279.796 58.1974C-279.837 57.9153 -279.836 57.9152 -279.835 57.915L-279.829 57.9142L-279.808 57.9113L-279.779 57.9073L-279.726 57.9003C-279.653 57.8909 -279.545 57.8776 -279.402 57.8615C-279.115 57.8292 -278.689 57.786 -278.123 57.7415C-276.993 57.6524 -275.309 57.5583 -273.089 57.5372C-268.65 57.495 -262.068 57.7447 -253.483 58.9104C-236.313 61.2418 -211.136 67.237 -179.076 81.8875C-114.956 111.188 -23.3154 175.106 86.8567 313.559C196.987 451.959 288.56 515.812 352.58 545.067C384.59 559.694 409.713 565.674 426.827 567.997C435.384 569.159 441.939 569.407 446.351 569.365C448.557 569.344 450.228 569.251 451.346 569.163C451.905 569.119 452.325 569.076 452.605 569.045C452.745 569.029 452.85 569.016 452.92 569.007C452.954 569.002 452.98 568.999 452.997 568.997L453.016 568.994L453.021 568.993C453.022 568.993 453.022 568.993 453.063 569.275C453.091 569.466 453.099 569.528 453.102 569.548L453.102 569.554L453.102 569.556C453.102 569.558 453.102 569.558 453.102 569.558L453.096 569.559L453.075 569.561C453.057 569.564 453.029 569.568 452.993 569.572C452.92 569.582 452.812 569.595 452.669 569.611C452.383 569.644 451.956 569.687 451.391 569.731C450.26 569.82 448.576 569.914 446.357 569.935C441.917 569.978 435.335 569.728 426.75 568.562C409.58 566.231 384.403 560.236 352.343 545.585C288.224 516.284 196.583 452.367 86.4105 313.914C-23.7196 175.513 -115.293 111.661 -179.313 82.406C-211.323 67.7784 -236.446 61.7991 -253.56 59.4753C-262.116 58.3134 -268.671 58.0654 -273.084 58.1074C-275.29 58.1284 -276.961 58.2218 -278.079 58.3099C-278.637 58.3539 -279.058 58.3965 -279.338 58.428C-279.478 58.4438 -279.583 58.4568 -279.652 58.4658C-279.687 58.4703 -279.713 58.4738 -279.73 58.4761L-279.749 58.4788L-279.754 58.4794ZM-283.651 63.3696C-283.61 63.6517 -283.61 63.6517 -283.609 63.6515L-283.604 63.6509L-283.585 63.6483C-283.568 63.6459 -283.542 63.6424 -283.508 63.6379C-283.438 63.629 -283.333 63.616 -283.193 63.6002C-282.913 63.5687 -282.493 63.526 -281.934 63.482C-280.816 63.394 -279.145 63.3005 -276.939 63.2795C-272.527 63.2376 -265.972 63.4856 -257.415 64.6475C-240.301 66.9712 -215.178 72.9506 -183.168 87.5782C-119.148 116.833 -27.5748 180.686 82.5554 319.086C192.727 457.539 284.368 521.457 348.488 550.757C380.548 565.408 405.725 571.403 422.895 573.735C431.48 574.9 438.062 575.15 442.501 575.108C444.721 575.087 446.405 574.993 447.535 574.903C448.101 574.859 448.527 574.816 448.814 574.783C448.862 574.778 448.905 574.773 448.945 574.768L449.05 574.756L449.138 574.745C449.174 574.74 449.201 574.736 449.22 574.734L449.241 574.731L449.247 574.73C449.247 574.73 449.248 574.73 449.247 574.72C449.244 574.7 449.236 574.638 449.208 574.447C449.167 574.165 449.166 574.165 449.166 574.166L449.161 574.166L449.142 574.169C449.125 574.171 449.099 574.175 449.065 574.179C448.995 574.188 448.89 574.201 448.75 574.217C448.59 574.235 448.385 574.256 448.134 574.28L448.008 574.291L447.923 574.299C447.861 574.304 447.797 574.31 447.73 574.316C447.653 574.322 447.573 574.329 447.491 574.335C446.373 574.423 444.702 574.517 442.496 574.538C438.083 574.58 431.529 574.331 422.972 573.17C405.858 570.846 380.735 564.866 348.725 550.239C284.705 520.984 193.132 457.132 83.0015 318.731C-27.1706 180.278 -118.812 116.36 -182.931 87.0596C-214.991 72.4092 -240.168 66.4139 -257.338 64.0825C-265.923 62.9168 -272.505 62.6672 -276.945 62.7094C-279.164 62.7305 -280.848 62.8246 -281.978 62.9136C-282.544 62.9581 -282.971 63.0014 -283.257 63.0336C-283.4 63.0497 -283.508 63.0631 -283.581 63.0725C-283.617 63.0772 -283.645 63.0809 -283.663 63.0834L-283.684 63.0864L-283.69 63.0872C-283.691 63.0874 -283.692 63.0875 -283.651 63.3696ZM-287.464 68.8234C-287.465 68.8235 -287.465 68.8236 -287.506 68.5415C-287.547 68.2594 -287.546 68.2593 -287.545 68.2591L-287.539 68.2583L-287.518 68.2553C-287.5 68.2528 -287.472 68.2491 -287.436 68.2444C-287.363 68.235 -287.255 68.2216 -287.112 68.2055C-286.826 68.1733 -286.399 68.13 -285.834 68.0855C-284.703 67.9965 -283.019 67.9024 -280.8 67.8813C-276.36 67.839 -269.778 68.0887 -261.193 69.2544C-244.023 71.5858 -218.846 77.5811 -186.786 92.2315C-122.667 121.532 -31.0257 185.45 79.1463 323.903C189.276 462.303 280.85 526.156 344.87 555.411C376.88 570.038 402.003 576.018 419.116 578.341C427.673 579.503 434.228 579.751 438.641 579.709C440.847 579.688 442.518 579.595 443.635 579.507C443.962 579.481 444.242 579.456 444.474 579.433L444.549 579.426L444.608 579.42L444.686 579.411L444.798 579.399L444.895 579.389C445.035 579.373 445.14 579.36 445.209 579.351L445.262 579.344L445.287 579.341L445.306 579.338L445.31 579.337C445.311 579.337 445.311 579.337 445.312 579.343C445.313 579.348 445.314 579.358 445.317 579.377L445.33 579.463L445.353 579.619C445.38 579.81 445.389 579.872 445.391 579.892L445.392 579.896L445.392 579.9C445.392 579.902 445.392 579.902 445.391 579.902L445.386 579.903L445.365 579.906C445.346 579.908 445.319 579.912 445.282 579.916C445.21 579.926 445.102 579.939 444.959 579.955C444.672 579.988 444.245 580.031 443.68 580.075C442.55 580.164 440.866 580.258 438.646 580.28C434.207 580.322 427.624 580.072 419.04 578.906C401.87 576.575 376.693 570.58 344.633 555.929C280.513 526.629 188.872 462.711 78.7002 324.258C-31.43 185.857 -123.004 122.005 -187.023 92.7501C-219.033 78.1225 -244.156 72.1431 -261.27 69.8194C-269.827 68.6575 -276.382 68.4094 -280.794 68.4514C-283.001 68.4724 -284.671 68.5659 -285.789 68.6539C-286.348 68.6979 -286.768 68.7406 -287.048 68.7721C-287.188 68.7879 -287.293 68.8008 -287.363 68.8098C-287.398 68.8143 -287.424 68.8178 -287.441 68.8202L-287.459 68.8228L-287.464 68.8234ZM-291.361 73.7134C-291.32 73.9955 -291.32 73.9954 -291.319 73.9953L-291.315 73.9947L-291.296 73.992C-291.279 73.9897 -291.253 73.9862 -291.218 73.9817C-291.188 73.9777 -291.15 73.973 -291.106 73.9676L-291.016 73.9569L-290.904 73.944C-290.624 73.9124 -290.203 73.8698 -289.644 73.8258C-288.527 73.7378 -286.856 73.6443 -284.65 73.6233C-280.237 73.5813 -273.682 73.8294 -265.125 74.9913C-248.012 77.315 -222.888 83.2944 -190.879 97.922C-126.859 127.177 -35.2852 191.029 74.8449 329.43C185.017 467.883 276.658 531.8 340.778 561.101C372.837 575.752 398.015 581.747 415.184 584.078C423.769 585.244 430.352 585.494 434.791 585.451C437.011 585.43 438.694 585.336 439.825 585.247C440.299 585.21 440.676 585.173 440.954 585.144L441.023 585.136L441.103 585.127C441.247 585.111 441.355 585.098 441.427 585.088L441.471 585.083L441.51 585.077L441.531 585.075L441.536 585.074C441.537 585.074 441.537 585.074 441.536 585.064C441.534 585.044 441.525 584.982 441.497 584.791C441.456 584.509 441.456 584.509 441.455 584.509L441.451 584.51L441.432 584.513C441.415 584.515 441.389 584.518 441.354 584.523C441.319 584.528 441.274 584.533 441.22 584.54C441.168 584.546 441.108 584.553 441.04 584.561C440.759 584.592 440.339 584.635 439.78 584.679C438.663 584.767 436.992 584.86 434.785 584.881C430.373 584.923 423.818 584.675 415.261 583.513C398.148 581.19 373.024 575.21 341.015 560.583C276.995 531.327 185.421 467.475 75.2911 329.075C-34.881 190.622 -126.522 126.704 -190.642 97.4034C-222.701 82.753 -247.879 76.7577 -265.048 74.4263C-273.633 73.2606 -280.216 73.0109 -284.655 73.0531C-286.875 73.0743 -288.558 73.1683 -289.689 73.2574C-290.254 73.3019 -290.681 73.3451 -290.967 73.3774C-291.111 73.3935 -291.219 73.4069 -291.291 73.4162C-291.328 73.4209 -291.355 73.4246 -291.374 73.4272L-291.395 73.4301L-291.4 73.4309C-291.402 73.4311 -291.403 73.4313 -291.361 73.7134ZM-295.174 79.1672C-295.175 79.1673 -295.175 79.1673 -295.217 78.8852C-295.258 78.6031 -295.257 78.603 -295.255 78.6028L-295.25 78.602L-295.229 78.5991C-295.21 78.5965 -295.183 78.5928 -295.146 78.5881C-295.074 78.5787 -294.966 78.5654 -294.823 78.5493C-294.536 78.517 -294.109 78.4738 -293.544 78.4293C-292.414 78.3402 -290.73 78.2461 -288.51 78.225C-284.071 78.1828 -277.488 78.4325 -268.904 79.5981C-251.734 81.9296 -226.556 87.9248 -194.497 102.575C-130.377 131.876 -38.7362 195.793 71.4359 334.247C181.566 472.647 273.14 536.499 337.159 565.755C369.169 580.382 394.293 586.361 411.406 588.685C419.963 589.847 426.518 590.095 430.93 590.053C433.137 590.032 434.807 589.939 435.925 589.851C436.484 589.807 436.904 589.764 437.184 589.733C437.324 589.717 437.429 589.704 437.499 589.695L437.533 589.69L437.577 589.684L437.596 589.682L437.6 589.681C437.601 589.681 437.601 589.681 437.642 589.963L437.667 590.137C437.672 590.167 437.675 590.189 437.677 590.205C437.679 590.22 437.68 590.23 437.681 590.236C437.681 590.242 437.682 590.244 437.681 590.245C437.681 590.246 437.681 590.246 437.681 590.246L437.676 590.246L437.654 590.249C437.636 590.252 437.608 590.256 437.572 590.26C437.499 590.27 437.391 590.283 437.248 590.299C436.962 590.331 436.535 590.375 435.97 590.419C434.839 590.508 433.155 590.602 430.936 590.623C426.496 590.666 419.914 590.416 411.329 589.25C394.159 586.919 368.982 580.924 336.922 566.273C272.803 536.972 181.162 473.055 70.9898 334.602C-39.1404 196.201 -130.714 132.349 -194.734 103.094C-226.744 88.4662 -251.867 82.4869 -268.98 80.1631C-277.537 79.0012 -284.092 78.7532 -288.505 78.7952C-290.711 78.8162 -292.382 78.9096 -293.499 78.9977C-294.058 79.0417 -294.479 79.0843 -294.759 79.1158C-294.899 79.1316 -295.004 79.1446 -295.073 79.1536L-295.097 79.1566L-295.151 79.1639L-295.17 79.1666L-295.174 79.1672ZM-299.031 84.3321L-299.03 84.338L-299.03 84.3392L-299.03 84.3393L-299.025 84.3387L-299.006 84.3361C-298.989 84.3337 -298.963 84.3302 -298.929 84.3257C-298.859 84.3167 -298.754 84.3038 -298.614 84.288C-298.334 84.2565 -297.913 84.2138 -297.355 84.1698C-296.237 84.0818 -294.566 83.9883 -292.36 83.9673C-287.947 83.9254 -281.392 84.1734 -272.836 85.3353C-255.722 87.659 -230.599 93.6384 -198.589 108.266C-134.569 137.521 -42.9957 201.373 67.1345 339.774C177.307 478.227 268.948 542.144 333.067 571.445C365.127 586.096 390.304 592.091 407.474 594.422C416.059 595.588 422.641 595.838 427.08 595.795C429.3 595.774 430.984 595.68 432.114 595.591C432.293 595.577 432.458 595.563 432.609 595.55C432.686 595.543 432.76 595.536 432.83 595.529L432.866 595.526L432.982 595.515C433.029 595.51 433.074 595.505 433.117 595.501L433.189 595.493C433.264 595.486 433.332 595.478 433.393 595.471C433.536 595.455 433.644 595.442 433.717 595.432C433.753 595.428 433.78 595.424 433.799 595.421L433.82 595.419L433.826 595.418C433.826 595.418 433.827 595.418 433.826 595.408C433.823 595.388 433.815 595.326 433.787 595.135C433.746 594.853 433.746 594.853 433.745 594.853L433.74 594.854L433.721 594.857L433.694 594.86L433.644 594.867C433.615 594.871 433.58 594.875 433.539 594.88C433.481 594.887 433.411 594.895 433.329 594.905C433.279 594.91 433.224 594.916 433.164 594.923L433.13 594.926C433.02 594.938 432.894 594.951 432.754 594.964C432.556 594.983 432.327 595.003 432.07 595.023C430.952 595.111 429.281 595.204 427.075 595.225C422.663 595.267 416.108 595.019 407.551 593.857C390.437 591.534 365.314 585.554 333.304 570.927C269.284 541.671 177.711 477.819 67.5807 339.419C-42.5914 200.966 -134.232 137.048 -198.352 107.747C-230.412 93.097 -255.589 87.1017 -272.759 84.7703C-281.344 83.6046 -287.926 83.355 -292.365 83.3972C-294.585 83.4183 -296.269 83.5124 -297.399 83.6014C-297.965 83.6459 -298.391 83.6892 -298.678 83.7214C-298.748 83.7293 -298.81 83.7366 -298.863 83.743C-298.918 83.7497 -298.965 83.7555 -299.002 83.7603L-299.042 83.7656L-299.084 83.7712L-299.105 83.7742L-299.111 83.775C-299.112 83.7752 -299.113 83.7753 -299.072 84.0574C-299.043 84.2561 -299.034 84.3148 -299.031 84.3321ZM-302.885 89.5112C-302.886 89.5113 -302.886 89.5114 -302.927 89.2293C-302.968 88.9472 -302.967 88.9471 -302.966 88.9469L-302.96 88.9461L-302.939 88.9431C-302.921 88.9406 -302.893 88.9369 -302.857 88.9322C-302.784 88.9228 -302.676 88.9094 -302.533 88.8933C-302.247 88.8611 -301.82 88.8178 -301.255 88.7733C-300.124 88.6843 -298.44 88.5902 -296.221 88.5691C-291.781 88.5268 -285.199 88.7765 -276.614 89.9422C-259.444 92.2736 -234.267 98.2689 -202.207 112.919C-138.088 142.22 -46.4466 206.137 63.7255 344.591C173.856 482.991 265.429 546.843 329.449 576.099C361.459 590.726 386.582 596.706 403.696 599.029C412.252 600.191 418.807 600.439 423.22 600.397C425.426 600.376 427.097 600.283 428.215 600.195C428.773 600.151 429.194 600.108 429.474 600.077C429.614 600.061 429.719 600.048 429.789 600.039C429.823 600.034 429.849 600.031 429.866 600.028L429.885 600.026L429.89 600.025C429.89 600.025 429.891 600.025 429.932 600.307C429.944 600.391 429.953 600.45 429.958 600.492C429.966 600.544 429.969 600.568 429.97 600.58C429.972 600.589 429.971 600.59 429.971 600.59L429.965 600.59L429.944 600.593C429.925 600.596 429.898 600.6 429.862 600.604C429.789 600.614 429.681 600.627 429.538 600.643C429.36 600.663 429.127 600.688 428.841 600.714C428.732 600.724 428.615 600.734 428.489 600.745L428.378 600.754L428.259 600.763C427.129 600.852 425.445 600.946 423.225 600.967C418.786 601.01 412.204 600.76 403.619 599.594C386.449 597.263 361.272 591.268 329.212 576.617C265.092 547.316 173.451 483.399 63.2793 344.946C-46.8508 206.545 -138.424 142.693 -202.444 113.438C-234.454 98.8103 -259.577 92.8309 -276.691 90.5072C-285.248 89.3453 -291.803 89.0972 -296.215 89.1392C-298.421 89.1602 -300.092 89.2537 -301.21 89.3417C-301.769 89.3857 -302.189 89.4284 -302.469 89.4599C-302.609 89.4756 -302.714 89.4886 -302.784 89.4976L-302.834 89.5043L-302.861 89.508L-302.88 89.5106L-302.885 89.5112ZM-306.782 94.4012L-306.75 94.6197C-306.741 94.6832 -306.74 94.6832 -306.74 94.6831L-306.736 94.6825L-306.717 94.6798C-306.7 94.6775 -306.674 94.674 -306.639 94.6695C-306.569 94.6605 -306.464 94.6475 -306.324 94.6318C-306.044 94.6002 -305.624 94.5576 -305.065 94.5136C-303.947 94.4256 -302.277 94.3321 -300.07 94.3111C-295.658 94.2691 -289.103 94.5172 -280.546 95.6791C-263.433 98.0028 -238.309 103.982 -206.299 118.61C-142.28 147.865 -50.7061 211.717 59.4241 350.118C169.596 488.571 261.237 552.488 325.357 581.789C357.416 596.439 382.594 602.435 399.764 604.766C408.348 605.932 414.931 606.181 419.37 606.139C421.59 606.118 423.274 606.024 424.404 605.935C424.969 605.891 425.396 605.847 425.683 605.815L425.756 605.807C425.802 605.801 425.843 605.796 425.88 605.792C425.93 605.786 425.972 605.781 426.006 605.776C426.043 605.772 426.07 605.768 426.089 605.765L426.11 605.762L426.115 605.761C426.116 605.761 426.116 605.761 426.115 605.752C426.113 605.731 426.104 605.67 426.076 605.479C426.035 605.197 426.035 605.197 426.034 605.197L426.03 605.198L426.011 605.2L425.982 605.204L425.933 605.211C425.864 605.22 425.759 605.233 425.619 605.248C425.339 605.28 424.918 605.323 424.359 605.367C423.242 605.455 421.571 605.548 419.365 605.569C414.952 605.611 408.397 605.363 399.84 604.201C382.727 601.877 357.603 595.898 325.594 581.27C261.574 552.015 170 488.163 59.8702 349.763C-50.3018 211.309 -141.943 147.392 -206.062 118.091C-238.122 103.441 -263.299 97.4455 -280.469 95.1141C-289.054 93.9484 -295.636 93.6987 -300.076 93.7409C-302.295 93.7621 -303.979 93.8561 -305.11 93.9452C-305.675 93.9897 -306.102 94.0329 -306.388 94.0652L-306.46 94.0733L-306.536 94.0823C-306.576 94.087 -306.611 94.0913 -306.642 94.0952L-306.712 94.104C-306.748 94.1087 -306.776 94.1124 -306.794 94.115L-306.816 94.1179L-306.821 94.1187C-306.823 94.1189 -306.823 94.1191 -306.782 94.4012ZM-310.595 99.8553C-310.596 99.8554 -310.596 99.8554 -310.637 99.5733C-310.679 99.2912 -310.678 99.2911 -310.676 99.2909L-310.671 99.2901L-310.65 99.2871L-310.606 99.2812L-310.567 99.2762C-310.537 99.2723 -310.5 99.2676 -310.457 99.2624C-310.398 99.2551 -310.327 99.2467 -310.243 99.2373C-309.957 99.2051 -309.53 99.1619 -308.965 99.1173C-307.834 99.0283 -306.151 98.9342 -303.931 98.9131C-299.492 98.8709 -292.909 99.1206 -284.324 100.286C-267.155 102.618 -241.977 108.613 -209.918 123.263C-145.798 152.564 -54.157 216.482 56.015 354.935C166.145 493.335 257.719 557.187 321.739 586.443C353.748 601.07 378.872 607.05 395.985 609.373C404.542 610.535 411.097 610.783 415.509 610.741C417.716 610.72 419.386 610.627 420.504 610.539C421.063 610.495 421.483 610.452 421.764 610.421C421.904 610.405 422.008 610.392 422.078 610.383L422.117 610.378L422.156 610.373L422.175 610.37L422.179 610.369C422.18 610.369 422.18 610.369 422.221 610.651C422.233 610.73 422.241 610.786 422.247 610.827L422.25 610.85C422.256 610.893 422.259 610.914 422.26 610.924C422.261 610.928 422.261 610.931 422.261 610.932C422.261 610.934 422.26 610.934 422.26 610.934L422.255 610.934L422.233 610.937L422.189 610.943L422.151 610.948C422.079 610.958 421.97 610.971 421.827 610.987L421.717 610.999L421.616 611.01L421.489 611.023C421.236 611.049 420.923 611.078 420.549 611.107C419.418 611.196 417.735 611.29 415.515 611.311C411.075 611.354 404.493 611.104 395.908 609.938C378.739 607.607 353.561 601.612 321.501 586.961C257.382 557.66 165.741 493.743 55.5689 355.29C-54.5613 216.889 -146.135 153.037 -210.155 123.782C-242.164 109.154 -267.288 103.175 -284.401 100.851C-292.958 99.6893 -299.513 99.4413 -303.926 99.4833C-306.132 99.5042 -307.803 99.5977 -308.92 99.6857C-309.479 99.7298 -309.9 99.7724 -310.18 99.8039L-310.253 99.8123L-310.323 99.8205C-310.394 99.8289 -310.451 99.8361 -310.494 99.8417L-310.536 99.8471L-310.572 99.852L-310.591 99.8546L-310.595 99.8553ZM-314.493 104.745C-314.451 105.027 -314.451 105.027 -314.45 105.027L-314.446 105.027L-314.427 105.024L-314.391 105.019L-314.349 105.014L-314.259 105.002L-314.161 104.99C-314.122 104.986 -314.08 104.981 -314.035 104.976C-313.755 104.944 -313.334 104.902 -312.775 104.858C-311.658 104.77 -309.987 104.676 -307.781 104.655C-303.368 104.613 -296.813 104.861 -288.256 106.023C-271.143 108.347 -246.02 114.326 -214.01 128.954C-149.99 158.209 -58.4164 222.061 51.7137 360.462C161.886 498.915 253.527 562.832 317.646 592.133C349.706 606.783 374.883 612.779 392.053 615.11C400.638 616.276 407.22 616.525 411.66 616.483C413.879 616.462 415.563 616.368 416.694 616.279C417.259 616.235 417.686 616.191 417.972 616.159L418.085 616.146L418.181 616.135C418.226 616.129 418.264 616.124 418.296 616.12C418.332 616.116 418.36 616.112 418.378 616.109L418.4 616.106L418.405 616.106C418.406 616.105 418.406 616.105 418.405 616.096L418.402 616.076L418.4 616.058L418.391 615.994L418.366 615.823C418.346 615.685 418.336 615.615 418.33 615.579L418.326 615.549C418.324 615.541 418.324 615.541 418.324 615.541L418.32 615.542L418.301 615.544C418.284 615.547 418.258 615.55 418.223 615.555C418.153 615.564 418.048 615.577 417.908 615.592C417.628 615.624 417.208 615.667 416.649 615.711C415.531 615.799 413.861 615.892 411.654 615.913C407.242 615.955 400.687 615.707 392.13 614.545C375.017 612.221 349.893 606.242 317.883 591.614C253.864 562.359 162.29 498.507 52.1599 360.107C-58.0122 221.653 -149.653 157.736 -213.773 128.435C-245.833 113.785 -271.01 107.79 -288.18 105.458C-296.764 104.292 -303.347 104.043 -307.786 104.085C-310.006 104.106 -311.69 104.2 -312.82 104.289C-313.385 104.334 -313.812 104.377 -314.099 104.409C-314.242 104.425 -314.35 104.439 -314.422 104.448C-314.459 104.453 -314.486 104.456 -314.505 104.459L-314.526 104.462L-314.531 104.463C-314.533 104.463 -314.534 104.463 -314.493 104.745ZM-318.306 110.199C-318.306 110.199 -318.307 110.199 -318.348 109.917C-318.36 109.833 -318.369 109.774 -318.374 109.733L-318.381 109.684L-318.385 109.66L-318.386 109.647C-318.388 109.635 -318.387 109.635 -318.387 109.635L-318.381 109.634L-318.36 109.631C-318.341 109.628 -318.314 109.625 -318.278 109.62C-318.205 109.611 -318.097 109.597 -317.954 109.581C-317.667 109.549 -317.241 109.506 -316.675 109.461C-315.545 109.372 -313.861 109.278 -311.641 109.257C-307.202 109.215 -300.62 109.464 -292.035 110.63C-274.865 112.961 -249.688 118.957 -217.628 133.607C-153.509 162.908 -61.8674 226.825 48.3046 365.279C158.435 503.679 250.008 567.531 314.028 596.786C346.038 611.414 371.161 617.393 388.275 619.717C396.832 620.879 403.386 621.127 407.799 621.085C410.005 621.064 411.676 620.971 412.794 620.883C413.353 620.839 413.773 620.796 414.053 620.764C414.193 620.749 414.298 620.736 414.368 620.727L414.415 620.72L414.445 620.716L414.464 620.714L414.469 620.713C414.47 620.713 414.47 620.713 414.511 620.995L414.528 621.111L414.54 621.196C414.546 621.237 414.548 621.258 414.55 621.268C414.551 621.277 414.55 621.277 414.55 621.277L414.544 621.278L414.523 621.281C414.504 621.284 414.477 621.287 414.441 621.292C414.368 621.302 414.26 621.315 414.117 621.331C413.831 621.363 413.404 621.406 412.838 621.451C411.708 621.54 410.024 621.634 407.804 621.655C403.365 621.697 396.783 621.448 388.198 620.282C371.028 617.951 345.851 611.955 313.791 597.305C249.672 568.004 158.031 504.087 47.8585 365.634C-62.2717 227.233 -153.845 163.381 -217.865 134.126C-249.875 119.498 -274.998 113.519 -292.112 111.195C-300.669 110.033 -307.223 109.785 -311.636 109.827C-313.842 109.848 -315.513 109.941 -316.631 110.03C-317.189 110.074 -317.61 110.116 -317.89 110.148C-318.03 110.163 -318.135 110.176 -318.205 110.185L-318.256 110.192L-318.282 110.196L-318.301 110.198L-318.306 110.199ZM-322.203 115.089C-322.162 115.371 -322.162 115.371 -322.161 115.371L-322.156 115.37L-322.137 115.368C-322.12 115.365 -322.094 115.362 -322.06 115.357C-321.99 115.348 -321.885 115.335 -321.745 115.32C-321.465 115.288 -321.045 115.245 -320.486 115.201C-319.368 115.113 -317.697 115.02 -315.491 114.999C-311.079 114.957 -304.524 115.205 -295.967 116.367C-278.853 118.691 -253.73 124.67 -221.72 139.298C-157.7 168.553 -66.1269 232.405 44.0033 370.805C154.175 509.259 245.816 573.176 309.936 602.477C341.996 617.127 367.173 623.123 384.343 625.454C392.928 626.62 399.51 626.869 403.949 626.827C406.169 626.806 407.853 626.712 408.983 626.623C409.359 626.593 409.673 626.564 409.926 626.539C410.054 626.526 410.166 626.514 410.262 626.503C410.405 626.487 410.513 626.473 410.586 626.464C410.622 626.459 410.649 626.456 410.668 626.453L410.689 626.45L410.695 626.449C410.695 626.449 410.695 626.449 410.695 626.447C410.695 626.446 410.695 626.444 410.694 626.439C410.692 626.419 410.684 626.357 410.656 626.167C410.615 625.885 410.614 625.885 410.614 625.885L410.609 625.886L410.59 625.888C410.573 625.891 410.547 625.894 410.512 625.899L410.475 625.903C410.407 625.912 410.315 625.923 410.198 625.936C409.918 625.968 409.497 626.01 408.939 626.054C407.821 626.142 406.15 626.236 403.944 626.257C399.531 626.299 392.976 626.051 384.42 624.889C367.306 622.565 342.183 616.586 310.173 601.958C246.153 572.703 154.58 508.851 44.4495 370.45C-65.7226 231.997 -157.364 168.08 -221.483 138.779C-253.543 124.129 -278.72 118.133 -295.89 115.802C-304.475 114.636 -311.057 114.387 -315.497 114.429C-317.716 114.45 -319.4 114.544 -320.531 114.633C-321.096 114.677 -321.523 114.721 -321.809 114.753C-321.952 114.769 -322.06 114.782 -322.133 114.792C-322.169 114.797 -322.197 114.8 -322.215 114.803L-322.236 114.806L-322.242 114.807L-322.242 114.807L-322.242 114.807C-322.242 114.807 -322.242 114.808 -322.242 114.81C-322.242 114.814 -322.241 114.82 -322.24 114.833C-322.235 114.865 -322.225 114.935 -322.203 115.089ZM-326.016 120.543C-326.017 120.543 -326.017 120.543 -326.058 120.261C-326.099 119.979 -326.099 119.979 -326.097 119.979L-326.092 119.978L-326.07 119.975L-326.031 119.97L-325.988 119.964C-325.915 119.955 -325.807 119.941 -325.664 119.925C-325.378 119.893 -324.951 119.85 -324.386 119.805C-323.255 119.716 -321.571 119.622 -319.352 119.601C-314.912 119.559 -308.33 119.808 -299.745 120.974C-282.575 123.305 -257.398 129.301 -225.338 143.951C-161.219 173.252 -69.5779 237.169 40.5942 375.623C150.724 514.023 242.298 577.875 306.318 607.13C338.327 621.758 363.451 627.737 380.564 630.061C389.121 631.223 395.676 631.471 400.089 631.429C402.295 631.408 403.966 631.315 405.083 631.227C405.642 631.183 406.063 631.14 406.343 631.108C406.483 631.093 406.588 631.08 406.657 631.071C406.692 631.066 406.718 631.063 406.735 631.06L406.754 631.058L406.758 631.057C406.759 631.057 406.759 631.057 406.801 631.339C406.828 631.529 406.837 631.591 406.839 631.612L406.84 631.618L406.84 631.62C406.84 631.621 406.84 631.621 406.839 631.621L406.834 631.622L406.813 631.625L406.772 631.631L406.73 631.636C406.658 631.646 406.55 631.659 406.407 631.675C406.301 631.687 406.176 631.7 406.031 631.715C405.785 631.739 405.484 631.767 405.128 631.795C403.998 631.884 402.314 631.978 400.094 631.999C395.655 632.041 389.072 631.792 380.488 630.626C363.318 628.295 338.14 622.299 306.081 607.649C241.961 578.348 150.32 514.431 40.1481 375.978C-69.9821 237.577 -161.556 173.725 -225.575 144.47C-257.585 129.842 -282.709 123.863 -299.822 121.539C-308.379 120.377 -314.934 120.129 -319.346 120.171C-321.553 120.192 -323.223 120.286 -324.341 120.374C-324.9 120.418 -325.32 120.46 -325.6 120.492C-325.74 120.507 -325.845 120.52 -325.915 120.529L-325.956 120.535L-325.993 120.54L-326.012 120.542L-326.016 120.543ZM-329.874 125.7C-329.872 125.715 -329.872 125.715 -329.871 125.715L-329.867 125.714L-329.848 125.712L-329.817 125.707L-329.77 125.701C-329.701 125.692 -329.596 125.679 -329.456 125.664C-329.176 125.632 -328.755 125.589 -328.196 125.545C-327.079 125.457 -325.408 125.364 -323.202 125.343C-318.789 125.301 -312.234 125.549 -303.677 126.711C-286.564 129.035 -261.44 135.014 -229.431 149.642C-165.411 178.897 -73.8373 242.749 36.2929 381.149C146.465 519.603 238.106 583.52 302.225 612.821C334.285 627.471 359.463 633.467 376.632 635.798C385.217 636.964 391.799 637.213 396.239 637.171C398.459 637.15 400.142 637.056 401.273 636.967C401.838 636.922 402.265 636.879 402.551 636.847C402.694 636.831 402.802 636.817 402.875 636.808C402.911 636.803 402.939 636.8 402.957 636.797L402.979 636.794L402.984 636.793C402.985 636.793 402.985 636.793 402.984 636.783C402.983 636.772 402.979 636.748 402.972 636.695C402.966 636.654 402.958 636.595 402.945 636.511C402.921 636.344 402.911 636.276 402.907 636.248C402.905 636.239 402.904 636.234 402.904 636.232C402.903 636.229 402.903 636.229 402.903 636.229L402.899 636.23L402.88 636.232C402.863 636.235 402.837 636.238 402.802 636.243C402.77 636.247 402.729 636.252 402.681 636.258C402.627 636.264 402.562 636.272 402.488 636.28C402.207 636.312 401.787 636.354 401.228 636.398C400.11 636.487 398.44 636.58 396.233 636.601C391.821 636.643 385.266 636.395 376.709 635.233C359.596 632.909 334.472 626.93 302.462 612.302C238.443 583.047 146.869 519.195 36.739 380.794C-73.433 242.341 -165.074 178.424 -229.194 149.123C-261.253 134.473 -286.431 128.477 -303.6 126.146C-312.185 124.98 -318.768 124.731 -323.207 124.773C-325.427 124.794 -327.11 124.888 -328.241 124.977C-328.806 125.022 -329.233 125.065 -329.519 125.097C-329.663 125.113 -329.771 125.126 -329.843 125.136L-329.894 125.143L-329.926 125.147L-329.947 125.15L-329.952 125.151C-329.954 125.151 -329.955 125.151 -329.913 125.433L-329.888 125.604C-329.88 125.658 -329.876 125.686 -329.874 125.7ZM-333.726 130.887C-333.727 130.887 -333.727 130.887 -333.731 130.861C-333.736 130.829 -333.746 130.759 -333.769 130.605C-333.81 130.323 -333.809 130.323 -333.808 130.322L-333.802 130.322L-333.781 130.319C-333.762 130.316 -333.735 130.312 -333.698 130.308C-333.626 130.298 -333.518 130.285 -333.375 130.269C-333.088 130.237 -332.661 130.193 -332.096 130.149C-330.966 130.06 -329.282 129.966 -327.062 129.945C-322.623 129.902 -316.04 130.152 -307.456 131.318C-290.286 133.649 -265.109 139.644 -233.049 154.295C-168.929 183.596 -77.2883 247.513 32.8838 385.966C143.014 524.367 234.588 588.219 298.607 617.474C330.617 632.102 355.74 638.081 372.854 640.405C381.411 641.567 387.966 641.815 392.378 641.773C394.584 641.752 396.255 641.658 397.373 641.57C397.612 641.552 397.826 641.533 398.015 641.515C398.266 641.492 398.472 641.47 398.632 641.452C398.772 641.436 398.877 641.423 398.947 641.414C398.982 641.41 399.008 641.406 399.025 641.404L399.043 641.401L399.048 641.401C399.049 641.401 399.049 641.401 399.09 641.683L399.115 641.852C399.124 641.915 399.127 641.943 399.129 641.955L399.129 641.962C399.13 641.965 399.129 641.965 399.129 641.965L399.123 641.966L399.102 641.969C399.084 641.972 399.056 641.975 399.02 641.98C398.999 641.983 398.976 641.986 398.949 641.989L398.929 641.991C398.879 641.998 398.819 642.005 398.751 642.012L398.696 642.019C398.602 642.029 398.492 642.041 398.367 642.054C398.113 642.08 397.796 642.109 397.418 642.139C396.287 642.228 394.603 642.322 392.384 642.343C387.944 642.385 381.362 642.136 372.777 640.97C355.607 638.638 330.43 632.643 298.37 617.993C234.251 588.692 142.61 524.775 32.4376 386.321C-77.6925 247.921 -169.266 184.069 -233.286 154.813C-265.296 140.186 -290.419 134.207 -307.532 131.883C-316.089 130.721 -322.644 130.473 -327.057 130.515C-329.263 130.536 -330.934 130.629 -332.051 130.717C-332.61 130.761 -333.031 130.804 -333.311 130.835C-333.451 130.851 -333.556 130.864 -333.625 130.873L-333.667 130.879L-333.703 130.884L-333.722 130.886L-333.726 130.887ZM-337.624 135.777C-337.583 136.059 -337.582 136.059 -337.582 136.059L-337.577 136.058L-337.558 136.055L-337.524 136.051L-337.481 136.045C-337.411 136.036 -337.306 136.023 -337.166 136.007C-336.886 135.976 -336.465 135.933 -335.907 135.889C-334.789 135.801 -333.118 135.708 -330.912 135.687C-326.499 135.645 -319.945 135.893 -311.388 137.055C-294.274 139.378 -269.151 145.358 -237.141 159.985C-173.121 189.241 -81.5477 253.093 28.5825 391.493C138.755 529.946 230.396 593.864 294.515 623.165C326.575 637.815 351.752 643.81 368.922 646.142C377.507 647.307 384.089 647.557 388.528 647.515C390.748 647.494 392.432 647.4 393.562 647.311C394.128 647.266 394.555 647.223 394.841 647.191C394.914 647.182 394.978 647.175 395.032 647.168C395.085 647.162 395.129 647.156 395.165 647.152C395.201 647.147 395.228 647.143 395.247 647.141L395.268 647.138L395.274 647.137C395.274 647.137 395.275 647.137 395.274 647.127C395.271 647.107 395.263 647.045 395.235 646.855L395.202 646.628C395.193 646.573 395.193 646.573 395.193 646.573L395.188 646.573L395.169 646.576C395.152 646.578 395.126 646.582 395.092 646.586L395.063 646.59L394.993 646.599C394.934 646.606 394.862 646.615 394.777 646.624C394.497 646.656 394.077 646.698 393.518 646.742C392.4 646.83 390.729 646.924 388.523 646.945C384.11 646.987 377.556 646.739 368.999 645.577C351.885 643.253 326.762 637.274 294.752 622.646C230.732 593.391 139.159 529.539 29.0286 391.138C-81.1435 252.685 -172.785 188.768 -236.904 159.467C-268.964 144.816 -294.141 138.821 -311.311 136.49C-319.896 135.324 -326.478 135.074 -330.917 135.117C-333.137 135.138 -334.821 135.232 -335.951 135.321C-336.517 135.365 -336.944 135.409 -337.23 135.441C-337.373 135.457 -337.481 135.47 -337.554 135.48L-337.584 135.484L-337.636 135.491L-337.657 135.494L-337.663 135.494C-337.664 135.495 -337.665 135.495 -337.624 135.777ZM-341.439 141.222L-341.443 141.191C-341.449 141.155 -341.459 141.084 -341.479 140.949C-341.52 140.667 -341.519 140.667 -341.518 140.667L-341.512 140.666L-341.491 140.663C-341.473 140.66 -341.445 140.656 -341.409 140.652C-341.336 140.642 -341.228 140.629 -341.085 140.613C-340.799 140.581 -340.372 140.537 -339.807 140.493C-338.676 140.404 -336.992 140.31 -334.773 140.289C-330.333 140.246 -323.751 140.496 -315.166 141.662C-297.996 143.993 -272.819 149.989 -240.759 164.639C-176.64 193.94 -84.9986 257.857 25.1734 396.31C135.304 534.711 226.877 598.563 290.897 627.818C322.907 642.446 348.03 648.425 365.143 650.749C373.7 651.911 380.255 652.159 384.668 652.117C386.874 652.096 388.545 652.002 389.663 651.914C390.221 651.87 390.642 651.828 390.922 651.796C391.062 651.78 391.167 651.767 391.236 651.758L391.273 651.754L391.314 651.748L391.333 651.745L391.337 651.745C391.338 651.745 391.338 651.745 391.347 651.805L391.38 652.027L391.403 652.189C391.409 652.231 391.413 652.258 391.415 652.276L391.418 652.299C391.419 652.309 391.419 652.309 391.419 652.309L391.413 652.31L391.392 652.313C391.373 652.316 391.346 652.319 391.31 652.324C391.237 652.333 391.129 652.347 390.986 652.363C390.912 652.371 390.83 652.38 390.738 652.39C390.637 652.4 390.525 652.411 390.401 652.423C390.2 652.442 389.968 652.462 389.707 652.483C388.577 652.572 386.893 652.666 384.673 652.687C380.234 652.729 373.651 652.48 365.067 651.314C347.897 648.982 322.72 642.987 290.66 628.337C226.54 599.036 134.899 535.119 24.7273 396.665C-85.4029 258.265 -176.977 194.413 -240.996 165.158C-273.006 150.53 -298.129 144.551 -315.243 142.227C-323.8 141.065 -330.355 140.817 -334.767 140.859C-336.973 140.88 -338.644 140.973 -339.762 141.061C-340.321 141.105 -340.741 141.148 -341.021 141.18C-341.161 141.195 -341.266 141.208 -341.336 141.217L-341.354 141.22L-341.413 141.228L-341.432 141.23L-341.437 141.231C-341.437 141.231 -341.437 141.231 -341.439 141.222ZM-345.295 146.387C-345.293 146.403 -345.292 146.403 -345.292 146.403L-345.288 146.402L-345.269 146.399L-345.244 146.396L-345.191 146.389C-345.121 146.38 -345.017 146.367 -344.876 146.351C-344.596 146.32 -344.176 146.277 -343.617 146.233C-342.499 146.145 -340.829 146.052 -338.622 146.031C-334.21 145.989 -327.655 146.237 -319.098 147.399C-301.985 149.722 -276.861 155.702 -244.851 170.329C-180.832 199.585 -89.2581 263.437 20.872 401.837C131.044 540.29 222.685 604.208 286.805 633.509C318.864 648.159 344.042 654.154 361.212 656.486C369.796 657.651 376.379 657.901 380.818 657.859C383.038 657.838 384.722 657.744 385.852 657.655C386.417 657.61 386.844 657.567 387.13 657.535C387.274 657.519 387.382 657.505 387.454 657.496C387.491 657.491 387.518 657.487 387.537 657.485L387.558 657.482L387.563 657.481C387.564 657.481 387.564 657.481 387.563 657.471C387.561 657.451 387.552 657.389 387.524 657.199C387.483 656.917 387.483 656.917 387.482 656.917L387.478 656.917L387.459 656.92C387.442 656.922 387.416 656.926 387.381 656.93C387.35 656.934 387.312 656.939 387.268 656.945C387.212 656.951 387.145 656.959 387.067 656.968C386.787 657 386.366 657.042 385.807 657.086C384.69 657.174 383.019 657.268 380.813 657.289C376.4 657.331 369.845 657.083 361.288 655.921C344.175 653.597 319.051 647.618 287.042 632.99C223.022 603.735 131.448 539.883 21.3182 401.482C-88.8539 263.029 -180.495 199.112 -244.614 169.811C-276.674 155.16 -301.851 149.165 -319.021 146.834C-327.606 145.668 -334.188 145.418 -338.628 145.461C-340.847 145.482 -342.531 145.576 -343.662 145.665C-344.227 145.709 -344.654 145.753 -344.94 145.785C-345.083 145.801 -345.191 145.814 -345.264 145.824C-345.3 145.828 -345.328 145.832 -345.346 145.835L-345.368 145.838L-345.373 145.838C-345.375 145.839 -345.375 145.839 -345.334 146.121C-345.309 146.294 -345.299 146.361 -345.295 146.387ZM-349.147 151.575C-349.148 151.575 -349.148 151.575 -349.189 151.293C-349.231 151.011 -349.23 151.01 -349.228 151.01L-349.223 151.009L-349.202 151.007L-349.18 151.004L-349.119 150.996C-349.047 150.986 -348.939 150.973 -348.795 150.957C-348.509 150.924 -348.082 150.881 -347.517 150.837C-346.387 150.748 -344.703 150.654 -342.483 150.632C-338.044 150.59 -331.461 150.84 -322.877 152.006C-305.707 154.337 -280.529 160.332 -248.47 174.983C-184.35 204.284 -92.7091 268.201 17.463 406.654C127.593 545.055 219.167 608.907 283.186 638.162C315.196 652.79 340.32 658.769 357.433 661.093C365.99 662.255 372.545 662.503 376.957 662.461C379.164 662.44 380.834 662.346 381.952 662.258C382.511 662.214 382.931 662.172 383.212 662.14C383.352 662.124 383.456 662.111 383.526 662.102C383.561 662.098 383.587 662.094 383.604 662.092L383.623 662.089L383.627 662.089C383.628 662.088 383.628 662.088 383.669 662.371C383.697 662.561 383.706 662.623 383.708 662.643C383.709 662.653 383.709 662.653 383.708 662.653L383.703 662.654L383.681 662.657L383.667 662.659C383.65 662.661 383.627 662.664 383.599 662.668L383.539 662.675L383.49 662.681L383.395 662.693C383.358 662.697 383.318 662.702 383.275 662.707C383.175 662.718 383.057 662.731 382.922 662.744C382.672 662.769 382.364 662.798 381.997 662.827C380.866 662.916 379.182 663.01 376.963 663.031C372.523 663.073 365.941 662.823 357.356 661.658C340.187 659.326 315.009 653.331 282.949 638.681C218.83 609.38 127.189 545.462 17.0169 407.009C-93.1133 268.609 -184.687 204.756 -248.707 175.501C-280.716 160.874 -305.84 154.894 -322.953 152.571C-331.51 151.409 -338.065 151.161 -342.478 151.203C-344.684 151.224 -346.355 151.317 -347.472 151.405C-348.031 151.449 -348.452 151.492 -348.732 151.523C-348.872 151.539 -348.977 151.552 -349.046 151.561C-349.081 151.566 -349.107 151.569 -349.124 151.571L-349.143 151.574L-349.147 151.575ZM-353.045 156.465C-353.004 156.747 -353.003 156.747 -353.002 156.746L-352.998 156.746L-352.979 156.743L-352.946 156.739L-352.901 156.733C-352.832 156.724 -352.727 156.711 -352.587 156.695C-352.307 156.664 -351.886 156.621 -351.327 156.577C-350.21 156.489 -348.539 156.395 -346.333 156.374C-341.92 156.333 -335.365 156.581 -326.808 157.742C-309.695 160.066 -284.572 166.046 -252.562 180.673C-188.542 209.928 -96.9686 273.78 13.1616 412.181C123.334 550.634 214.975 614.552 279.094 643.852C311.154 658.503 336.331 664.498 353.501 666.83C362.086 667.995 368.668 668.245 373.108 668.203C375.327 668.182 377.011 668.087 378.142 667.998C378.707 667.954 379.134 667.911 379.42 667.878C379.504 667.869 379.577 667.86 379.637 667.853C379.678 667.848 379.714 667.843 379.744 667.84C379.78 667.835 379.808 667.831 379.826 667.829L379.847 667.826L379.853 667.825C379.853 667.825 379.854 667.825 379.853 667.815C379.85 667.795 379.842 667.733 379.814 667.542C379.773 667.26 379.773 667.26 379.772 667.26L379.767 667.261L379.748 667.264C379.731 667.266 379.706 667.27 379.671 667.274C379.636 667.279 379.591 667.284 379.538 667.291C379.486 667.297 379.425 667.304 379.356 667.312C379.318 667.316 379.277 667.321 379.234 667.325L379.162 667.333L379.129 667.337L379.014 667.348L378.891 667.361C378.775 667.372 378.648 667.384 378.511 667.396C378.432 667.403 378.35 667.41 378.264 667.417L378.097 667.43C376.979 667.518 375.308 667.612 373.102 667.633C368.69 667.675 362.135 667.426 353.578 666.265C336.464 663.941 311.341 657.961 279.331 643.334C215.312 614.079 123.738 550.227 13.6078 411.826C-96.5643 273.373 -188.205 209.455 -252.325 180.155C-284.385 165.504 -309.562 159.509 -326.732 157.177C-335.317 156.012 -341.899 155.762 -346.338 155.804C-348.558 155.825 -350.242 155.92 -351.372 156.009C-351.937 156.053 -352.364 156.096 -352.651 156.129C-352.794 156.145 -352.902 156.158 -352.975 156.167L-353.034 156.175L-353.057 156.178L-353.078 156.181L-353.084 156.182C-353.085 156.182 -353.086 156.182 -353.045 156.465ZM-356.858 161.919C-356.858 161.919 -356.859 161.919 -356.9 161.637C-356.941 161.355 -356.94 161.355 -356.939 161.354L-356.933 161.353L-356.912 161.351L-356.875 161.345L-356.83 161.34C-356.757 161.33 -356.649 161.317 -356.506 161.301C-356.22 161.269 -355.793 161.225 -355.227 161.181C-354.097 161.092 -352.413 160.998 -350.193 160.977C-345.754 160.934 -339.172 161.184 -330.587 162.35C-313.417 164.681 -288.24 170.676 -256.18 185.327C-192.061 214.628 -100.419 278.545 9.75258 416.998C119.883 555.399 211.456 619.251 275.476 648.506C307.486 663.134 332.609 669.113 349.723 671.437C358.28 672.599 364.834 672.847 369.247 672.805C371.453 672.784 373.124 672.69 374.242 672.602C374.801 672.558 375.221 672.516 375.501 672.484C375.641 672.468 375.746 672.455 375.816 672.446C375.85 672.442 375.876 672.438 375.893 672.436L375.912 672.433L375.917 672.433C375.917 672.433 375.918 672.432 375.959 672.715C375.975 672.824 375.984 672.891 375.99 672.932C375.995 672.962 375.997 672.979 375.998 672.987C375.998 672.991 375.998 672.994 375.998 672.995C375.998 672.997 375.998 672.997 375.998 672.997L375.992 672.998L375.971 673.001L375.936 673.006L375.889 673.012C375.816 673.021 375.708 673.034 375.565 673.051C375.279 673.083 374.852 673.126 374.286 673.171C373.156 673.26 371.472 673.354 369.252 673.375C364.813 673.417 358.231 673.167 349.646 672.002C332.476 669.67 307.299 663.675 275.239 649.025C211.12 619.724 119.479 555.806 9.30644 417.353C-100.824 278.953 -192.397 215.101 -256.417 185.845C-288.427 171.218 -313.55 165.238 -330.664 162.915C-339.221 161.753 -345.775 161.505 -350.188 161.547C-352.394 161.568 -354.065 161.661 -355.183 161.749C-355.741 161.793 -356.162 161.836 -356.442 161.867C-356.582 161.883 -356.687 161.896 -356.757 161.905C-356.791 161.91 -356.817 161.913 -356.834 161.915L-356.853 161.918L-356.858 161.919ZM-360.755 166.809C-360.714 167.091 -360.714 167.091 -360.713 167.091L-360.708 167.09L-360.69 167.087C-360.673 167.085 -360.647 167.081 -360.612 167.077C-360.542 167.068 -360.437 167.055 -360.297 167.039C-360.017 167.008 -359.597 166.965 -359.038 166.921C-357.92 166.833 -356.25 166.74 -354.043 166.719C-349.631 166.677 -343.076 166.925 -334.519 168.086C-317.405 170.41 -292.282 176.39 -260.272 191.017C-196.253 220.272 -104.679 284.125 5.4512 422.525C115.623 560.978 207.264 624.896 271.384 654.196C303.444 668.847 328.621 674.842 345.791 677.174C354.375 678.339 360.958 678.589 365.397 678.547C367.617 678.526 369.301 678.432 370.431 678.342C370.996 678.298 371.423 678.255 371.71 678.222C371.798 678.213 371.872 678.204 371.934 678.196C371.972 678.191 372.005 678.187 372.033 678.184C372.07 678.179 372.097 678.175 372.116 678.173L372.137 678.17L372.143 678.169C372.143 678.169 372.143 678.169 372.143 678.166L372.142 678.159C372.141 678.149 372.138 678.128 372.133 678.086C372.127 678.045 372.117 677.982 372.104 677.886C372.062 677.604 372.062 677.604 372.061 677.605L372.057 677.605L372.038 677.608C372.021 677.61 371.995 677.614 371.96 677.618L371.895 677.626L371.855 677.631L371.797 677.638C371.752 677.644 371.702 677.65 371.646 677.656C371.366 677.687 370.945 677.73 370.386 677.774C369.269 677.862 367.598 677.956 365.392 677.977C360.979 678.019 354.424 677.77 345.867 676.609C328.754 674.285 303.631 668.305 271.621 653.678C207.601 624.423 116.028 560.571 5.89734 422.17C-104.275 283.717 -195.916 219.799 -260.035 190.499C-292.095 175.848 -317.272 169.853 -334.442 167.522C-343.027 166.356 -349.609 166.106 -354.049 166.148C-356.268 166.17 -357.952 166.264 -359.083 166.353C-359.648 166.397 -360.075 166.44 -360.361 166.473C-360.504 166.489 -360.612 166.502 -360.685 166.511C-360.721 166.516 -360.749 166.52 -360.767 166.522L-360.788 166.525L-360.794 166.526C-360.795 166.526 -360.796 166.527 -360.755 166.809ZM-364.568 172.262C-364.569 172.263 -364.569 172.263 -364.61 171.98C-364.651 171.698 -364.651 171.698 -364.649 171.698L-364.644 171.697L-364.622 171.694C-364.604 171.692 -364.576 171.688 -364.54 171.683C-364.467 171.674 -364.359 171.661 -364.216 171.644C-363.93 171.612 -363.503 171.569 -362.938 171.524C-361.807 171.435 -360.123 171.341 -357.904 171.32C-353.464 171.278 -346.882 171.528 -338.297 172.693C-321.128 175.025 -295.95 181.02 -263.89 195.67C-199.771 224.971 -108.13 288.889 2.04218 427.342C112.172 565.742 203.746 629.595 267.766 658.85C299.775 673.477 324.899 679.457 342.012 681.78C350.569 682.942 357.124 683.19 361.537 683.148C363.743 683.127 365.414 683.034 366.531 682.946C367.09 682.902 367.511 682.859 367.791 682.828C367.853 682.821 367.907 682.814 367.956 682.809C368.016 682.801 368.066 682.795 368.105 682.79L368.158 682.783L368.183 682.78L368.202 682.777L368.206 682.776C368.207 682.776 368.207 682.776 368.208 682.787C368.212 682.807 368.221 682.87 368.248 683.058C368.276 683.249 368.285 683.311 368.287 683.331C368.288 683.341 368.288 683.341 368.287 683.341L368.282 683.342L368.261 683.345C368.242 683.347 368.215 683.351 368.178 683.355C368.106 683.365 367.998 683.378 367.854 683.394C367.712 683.41 367.535 683.429 367.324 683.449C367.11 683.47 366.86 683.492 366.576 683.514C365.446 683.603 363.762 683.697 361.542 683.719C357.103 683.761 350.52 683.511 341.936 682.345C324.766 680.014 299.588 674.019 267.529 659.368C203.409 630.068 111.768 566.15 1.59602 427.697C-108.534 289.296 -200.108 225.444 -264.127 196.189C-296.137 181.561 -321.261 175.582 -338.374 173.258C-346.931 172.096 -353.486 171.848 -357.898 171.89C-360.105 171.911 -361.775 172.005 -362.893 172.093C-363.452 172.137 -363.872 172.18 -364.153 172.211C-364.293 172.227 -364.397 172.24 -364.467 172.249L-364.51 172.254L-364.545 172.259L-364.564 172.262L-364.568 172.262ZM-368.465 177.152C-368.424 177.434 -368.424 177.434 -368.423 177.434L-368.419 177.434L-368.4 177.431C-368.383 177.429 -368.357 177.425 -368.322 177.421C-368.253 177.412 -368.148 177.399 -368.008 177.383C-367.728 177.351 -367.307 177.309 -366.748 177.265C-365.631 177.177 -363.96 177.083 -361.754 177.062C-357.341 177.02 -350.786 177.268 -342.229 178.43C-325.116 180.754 -299.992 186.733 -267.983 201.361C-203.963 230.616 -112.389 294.468 -2.25914 432.869C107.913 571.322 199.554 635.239 263.673 664.54C295.733 679.191 320.91 685.186 338.08 687.517C346.665 688.683 353.247 688.933 357.687 688.89C359.906 688.869 361.59 688.775 362.721 688.686C362.959 688.667 363.173 688.649 363.362 688.631C363.621 688.607 363.834 688.585 363.999 688.566C364.142 688.55 364.25 688.537 364.323 688.527L364.38 688.52L364.405 688.516L364.427 688.513L364.432 688.513C364.433 688.513 364.433 688.513 364.432 688.503C364.43 688.483 364.421 688.421 364.393 688.23L364.37 688.07C364.361 688.009 364.356 687.978 364.354 687.963C364.352 687.948 364.351 687.948 364.351 687.948L364.347 687.949L364.328 687.952L364.286 687.957L364.25 687.962C364.18 687.971 364.075 687.984 363.935 688C363.793 688.016 363.613 688.035 363.398 688.055C363.191 688.075 362.95 688.096 362.676 688.118C361.558 688.206 359.888 688.299 357.681 688.32C353.269 688.362 346.714 688.114 338.157 686.952C321.044 684.629 295.92 678.649 263.91 664.022C199.891 634.766 108.317 570.914 -1.813 432.514C-111.985 294.061 -203.626 230.143 -267.746 200.842C-299.805 186.192 -324.983 180.197 -342.153 177.865C-350.737 176.7 -357.32 176.45 -361.759 176.492C-363.979 176.513 -365.663 176.607 -366.793 176.696C-367.358 176.741 -367.785 176.784 -368.071 176.816C-368.215 176.832 -368.323 176.846 -368.395 176.855L-368.451 176.863L-368.478 176.866L-368.499 176.869L-368.504 176.87C-368.506 176.87 -368.507 176.87 -368.465 177.152ZM-372.278 182.606C-372.279 182.607 -372.28 182.607 -372.321 182.325C-372.362 182.042 -372.361 182.042 -372.36 182.042L-372.354 182.041L-372.333 182.038C-372.314 182.036 -372.287 182.032 -372.25 182.027C-372.178 182.018 -372.07 182.005 -371.927 181.989C-371.64 181.956 -371.213 181.913 -370.648 181.869C-369.518 181.78 -367.834 181.685 -365.614 181.664C-361.175 181.622 -354.592 181.872 -346.008 183.037C-328.838 185.369 -303.661 191.364 -271.601 206.015C-207.481 235.315 -115.84 299.233 -5.66817 437.686C104.462 576.086 196.036 639.939 260.055 669.194C292.065 683.821 317.188 689.801 334.302 692.124C342.859 693.286 349.414 693.534 353.826 693.492C356.032 693.472 357.703 693.378 358.821 693.29C359.38 693.246 359.8 693.203 360.08 693.172C360.22 693.156 360.325 693.143 360.395 693.134L360.473 693.124L360.491 693.121L360.496 693.12C360.496 693.12 360.496 693.12 360.496 693.122L360.498 693.129C360.501 693.149 360.51 693.21 360.538 693.402C360.552 693.496 360.561 693.558 360.567 693.6C360.573 693.643 360.576 693.665 360.577 693.675C360.578 693.685 360.577 693.685 360.577 693.685L360.571 693.686L360.55 693.689C360.532 693.691 360.504 693.695 360.468 693.7C360.395 693.709 360.287 693.722 360.144 693.738C360.01 693.753 359.845 693.771 359.65 693.79C359.428 693.811 359.166 693.835 358.866 693.858C357.735 693.947 356.051 694.042 353.832 694.063C349.392 694.105 342.81 693.855 334.225 692.69C317.055 690.358 291.878 684.363 259.818 669.712C195.699 640.412 104.058 576.494 -6.11431 438.041C-116.244 299.64 -207.818 235.788 -271.838 206.533C-303.848 191.906 -328.971 185.926 -346.084 183.602C-354.641 182.441 -361.196 182.192 -365.609 182.234C-367.815 182.255 -369.486 182.349 -370.603 182.437C-371.162 182.481 -371.583 182.524 -371.863 182.555C-372.003 182.571 -372.108 182.584 -372.177 182.593C-372.212 182.597 -372.238 182.601 -372.255 182.603L-372.274 182.606L-372.278 182.606ZM-376.176 187.496C-376.135 187.779 -376.135 187.778 -376.134 187.778L-376.129 187.778L-376.11 187.775L-376.076 187.77L-376.033 187.765C-375.963 187.756 -375.858 187.743 -375.718 187.727C-375.438 187.695 -375.018 187.653 -374.459 187.609C-373.341 187.521 -371.67 187.427 -369.464 187.406C-365.052 187.364 -358.497 187.612 -349.94 188.774C-332.826 191.098 -307.703 197.077 -275.693 211.705C-211.673 240.96 -120.1 304.812 -9.96965 443.213C100.202 581.666 191.843 645.583 255.963 674.884C288.023 689.535 313.2 695.53 330.37 697.861C338.955 699.027 345.537 699.277 349.976 699.234C352.196 699.213 353.88 699.119 355.01 699.03C355.576 698.986 356.002 698.943 356.289 698.91C356.432 698.894 356.54 698.881 356.613 698.871C356.649 698.867 356.676 698.863 356.695 698.86L356.716 698.858L356.722 698.857C356.722 698.857 356.723 698.857 356.722 698.847C356.719 698.827 356.711 698.765 356.683 698.574C356.642 698.292 356.641 698.292 356.641 698.292L356.636 698.293L356.617 698.296C356.6 698.298 356.574 698.301 356.54 698.306C356.47 698.315 356.365 698.328 356.225 698.344C356.181 698.349 356.133 698.354 356.081 698.36C355.975 698.371 355.854 698.383 355.719 698.396C355.504 698.417 355.253 698.439 354.966 698.462C353.848 698.55 352.177 698.643 349.971 698.664C345.558 698.706 339.004 698.458 330.447 697.296C313.333 694.973 288.21 688.993 256.2 674.366C192.18 645.11 100.607 581.258 -9.5235 442.858C-119.696 304.405 -211.337 240.487 -275.456 211.186C-307.516 196.536 -332.693 190.541 -349.863 188.209C-358.448 187.044 -365.03 186.794 -369.47 186.836C-371.689 186.857 -373.373 186.951 -374.503 187.04C-375.069 187.085 -375.496 187.128 -375.782 187.16C-375.925 187.177 -376.033 187.19 -376.106 187.199C-376.142 187.204 -376.17 187.208 -376.188 187.21L-376.209 187.213L-376.215 187.214C-376.216 187.214 -376.217 187.214 -376.176 187.496ZM-379.989 192.95C-379.99 192.95 -379.99 192.95 -380.031 192.668C-380.072 192.386 -380.071 192.386 -380.07 192.386L-380.064 192.385L-380.043 192.382C-380.025 192.38 -379.997 192.376 -379.961 192.371C-379.888 192.362 -379.78 192.348 -379.637 192.332C-379.351 192.3 -378.924 192.257 -378.359 192.212C-377.228 192.123 -375.544 192.029 -373.325 192.008C-368.885 191.966 -362.303 192.216 -353.718 193.381C-336.548 195.713 -311.371 201.708 -279.311 216.358C-215.192 245.659 -123.551 309.576 -13.3787 448.03C96.7515 586.43 188.325 650.282 252.345 679.538C284.355 694.165 309.478 700.145 326.591 702.468C335.148 703.63 341.703 703.878 346.116 703.836C348.322 703.815 349.993 703.722 351.11 703.634C351.669 703.59 352.09 703.547 352.37 703.516C352.51 703.5 352.615 703.487 352.684 703.478C352.719 703.473 352.745 703.47 352.762 703.467L352.781 703.465L352.785 703.464C352.786 703.464 352.786 703.464 352.828 703.746C352.855 703.937 352.864 703.999 352.866 704.019C352.867 704.028 352.867 704.029 352.866 704.029L352.861 704.029L352.84 704.032C352.821 704.035 352.794 704.039 352.757 704.043C352.725 704.047 352.686 704.052 352.64 704.058L352.535 704.071L352.434 704.082C352.147 704.114 351.72 704.158 351.155 704.202C350.025 704.291 348.341 704.385 346.121 704.406C341.682 704.449 335.099 704.199 326.515 703.033C309.345 700.702 284.167 694.707 252.108 680.056C187.988 650.755 96.3473 586.838 -13.8248 448.385C-123.955 309.984 -215.529 246.132 -279.548 216.877C-311.558 202.249 -336.681 196.27 -353.795 193.946C-362.352 192.784 -368.907 192.536 -373.319 192.578C-375.526 192.599 -377.196 192.693 -378.314 192.781C-378.873 192.825 -379.293 192.867 -379.573 192.899C-379.713 192.915 -379.818 192.928 -379.888 192.937L-379.93 192.942L-379.966 192.947L-379.984 192.95L-379.989 192.95ZM-383.886 197.84C-383.845 198.122 -383.845 198.122 -383.844 198.122L-383.84 198.121L-383.821 198.119L-383.785 198.114L-383.743 198.108C-383.673 198.1 -383.569 198.087 -383.429 198.071C-383.148 198.039 -382.728 197.997 -382.169 197.953C-381.051 197.865 -379.381 197.771 -377.174 197.75C-372.762 197.708 -366.207 197.956 -357.65 199.118C-340.537 201.442 -315.413 207.421 -283.403 222.049C-219.384 251.304 -127.81 315.156 -17.68 453.557C92.4921 592.01 184.133 655.927 248.253 685.228C280.312 699.878 305.49 705.874 322.659 708.205C331.244 709.371 337.827 709.62 342.266 709.578C344.486 709.557 346.17 709.463 347.3 709.374C347.406 709.366 347.506 709.357 347.602 709.349L347.684 709.342L347.746 709.337L347.84 709.328C348.145 709.301 348.392 709.275 348.578 709.254C348.722 709.238 348.83 709.225 348.902 709.215L348.938 709.211L348.985 709.204L349.006 709.201L349.011 709.2C349.012 709.2 349.012 709.2 349.012 709.199L349.012 709.198L349.011 709.194L349.011 709.191C349.01 709.184 349.009 709.174 349.007 709.156L348.994 709.07L348.972 708.918C348.949 708.754 348.938 708.685 348.934 708.657C348.931 708.636 348.931 708.636 348.93 708.636L348.926 708.637L348.907 708.639C348.89 708.642 348.864 708.645 348.829 708.65C348.76 708.659 348.655 708.672 348.515 708.687C348.235 708.719 347.814 708.762 347.255 708.806C346.138 708.894 344.467 708.987 342.261 709.008C337.848 709.05 331.293 708.802 322.736 707.64C305.623 705.316 280.499 699.337 248.49 684.709C184.47 655.454 92.8963 591.602 -17.2338 453.202C-127.406 314.748 -219.047 250.831 -283.166 221.53C-315.226 206.88 -340.404 200.884 -357.573 198.553C-366.158 197.387 -372.741 197.138 -377.18 197.18C-379.4 197.201 -381.083 197.295 -382.214 197.384C-382.779 197.429 -383.206 197.472 -383.492 197.504C-383.635 197.52 -383.744 197.534 -383.816 197.543C-383.852 197.548 -383.88 197.551 -383.898 197.554L-383.92 197.557L-383.925 197.558C-383.927 197.558 -383.927 197.558 -383.886 197.84ZM-387.699 203.294C-387.7 203.294 -387.7 203.294 -387.742 203.012C-387.783 202.73 -387.782 202.73 -387.78 202.73L-387.775 202.729L-387.754 202.726C-387.735 202.724 -387.708 202.72 -387.671 202.715C-387.599 202.706 -387.491 202.692 -387.347 202.676C-387.061 202.644 -386.634 202.601 -386.069 202.556C-384.939 202.467 -383.255 202.373 -381.035 202.352C-376.596 202.31 -370.013 202.56 -361.429 203.725C-344.259 206.057 -319.081 212.052 -287.022 226.702C-222.902 256.003 -131.261 319.921 -21.089 458.374C89.0411 596.774 180.615 660.626 244.634 689.882C276.644 704.509 301.768 710.489 318.881 712.812C327.438 713.974 333.993 714.222 338.405 714.18C340.612 714.159 342.282 714.066 343.4 713.978C343.959 713.934 344.379 713.891 344.66 713.86C344.8 713.844 344.904 713.831 344.974 713.822L345.052 713.812L345.071 713.809L345.075 713.808C345.076 713.808 345.076 713.808 345.117 714.09C345.145 714.281 345.154 714.343 345.156 714.363C345.157 714.373 345.157 714.373 345.156 714.373L345.151 714.373L345.129 714.376C345.111 714.379 345.083 714.383 345.047 714.387C344.974 714.397 344.866 714.41 344.723 714.426C344.437 714.458 344.01 714.502 343.445 714.546C342.314 714.635 340.63 714.729 338.411 714.75C333.971 714.793 327.389 714.543 318.804 713.377C301.635 711.046 276.457 705.051 244.397 690.4C180.278 661.099 88.6369 597.182 -21.5352 458.729C-131.665 320.328 -223.239 256.476 -287.259 227.221C-319.268 212.593 -344.392 206.614 -361.505 204.29C-370.062 203.128 -376.617 202.88 -381.03 202.922C-383.236 202.943 -384.907 203.037 -386.024 203.125C-386.583 203.169 -387.004 203.211 -387.284 203.243C-387.424 203.259 -387.529 203.272 -387.598 203.281L-387.645 203.287L-387.676 203.291L-387.695 203.294L-387.699 203.294ZM-391.597 208.184C-391.556 208.466 -391.555 208.466 -391.555 208.466L-391.55 208.466L-391.531 208.463C-391.514 208.461 -391.488 208.457 -391.454 208.453C-391.384 208.444 -391.279 208.431 -391.139 208.415C-390.859 208.383 -390.438 208.341 -389.88 208.297C-388.762 208.209 -387.091 208.115 -384.885 208.094C-380.472 208.052 -373.917 208.3 -365.361 209.462C-348.247 211.786 -323.124 217.765 -291.114 232.393C-227.094 261.648 -135.521 325.5 -25.3905 463.901C84.7816 602.354 176.423 666.271 240.542 695.572C272.602 710.222 297.779 716.218 314.949 718.549C323.534 719.715 330.116 719.964 334.555 719.922C336.775 719.901 338.459 719.807 339.589 719.718C340.155 719.674 340.582 719.63 340.868 719.598C341.011 719.582 341.119 719.569 341.192 719.559C341.228 719.555 341.255 719.551 341.274 719.548L341.295 719.545L341.301 719.545C341.301 719.544 341.302 719.544 341.301 719.535C341.298 719.514 341.29 719.453 341.262 719.262C341.221 718.98 341.221 718.98 341.22 718.98L341.215 718.981L341.196 718.983C341.179 718.986 341.153 718.989 341.119 718.994C341.081 718.999 341.033 719.005 340.975 719.012C340.925 719.018 340.868 719.024 340.804 719.031C340.524 719.063 340.104 719.106 339.545 719.15C338.427 719.238 336.756 719.331 334.55 719.352C330.138 719.394 323.583 719.146 315.026 717.984C297.912 715.66 272.789 709.681 240.779 695.053C176.759 665.798 85.1858 601.946 -24.9443 463.546C-135.116 325.092 -226.758 261.175 -290.877 231.874C-322.937 217.224 -348.114 211.229 -365.284 208.897C-373.869 207.731 -380.451 207.482 -384.89 207.524C-387.11 207.545 -388.794 207.639 -389.924 207.728C-390.49 207.773 -390.916 207.816 -391.203 207.848C-391.346 207.864 -391.454 207.878 -391.527 207.887L-391.563 207.892L-391.609 207.898L-391.63 207.901L-391.636 207.902C-391.637 207.902 -391.638 207.902 -391.597 208.184ZM-395.41 213.638C-395.411 213.638 -395.411 213.638 -395.452 213.356C-395.493 213.074 -395.492 213.074 -395.491 213.074L-395.485 213.073L-395.464 213.07C-395.446 213.067 -395.418 213.064 -395.382 213.059C-395.309 213.05 -395.201 213.036 -395.058 213.02C-394.772 212.988 -394.345 212.945 -393.78 212.9C-392.649 212.811 -390.965 212.717 -388.746 212.696C-384.306 212.654 -377.724 212.903 -369.139 214.069C-351.969 216.4 -326.792 222.396 -294.732 237.046C-230.613 266.347 -138.972 330.264 -28.7995 468.718C81.3306 607.118 172.904 670.97 236.924 700.225C268.934 714.853 294.057 720.832 311.171 723.156C319.727 724.318 326.282 724.566 330.695 724.524C332.901 724.503 334.572 724.41 335.69 724.322C336.248 724.278 336.669 724.235 336.949 724.203C337.089 724.188 337.194 724.175 337.264 724.166L337.315 724.159L337.341 724.155L337.36 724.153L337.365 724.152C337.365 724.152 337.366 724.152 337.407 724.434C337.435 724.624 337.443 724.686 337.445 724.707C337.447 724.716 337.446 724.716 337.446 724.716L337.44 724.717L337.419 724.72C337.4 724.723 337.373 724.726 337.337 724.731C337.264 724.74 337.156 724.754 337.013 724.77C336.726 724.802 336.3 724.845 335.734 724.89C334.604 724.979 332.92 725.073 330.7 725.094C326.261 725.136 319.679 724.887 311.094 723.721C293.924 721.39 268.747 715.394 236.687 700.744C172.567 671.443 80.9264 607.526 -29.2457 469.073C-139.376 330.672 -230.949 266.82 -294.969 237.565C-326.979 222.937 -352.102 216.958 -369.216 214.634C-377.773 213.472 -384.328 213.224 -388.74 213.266C-390.946 213.287 -392.617 213.38 -393.735 213.468C-394.294 213.513 -394.714 213.555 -394.994 213.587C-395.134 213.602 -395.239 213.615 -395.309 213.624C-395.343 213.629 -395.369 213.632 -395.386 213.635L-395.405 213.637L-395.41 213.638ZM-399.265 218.81C-399.266 218.81 -399.266 218.81 -399.307 218.528C-399.348 218.246 -399.347 218.246 -399.346 218.246L-399.34 218.245L-399.319 218.242C-399.301 218.24 -399.273 218.236 -399.237 218.231C-399.164 218.222 -399.056 218.208 -398.913 218.192C-398.627 218.16 -398.2 218.117 -397.635 218.072C-396.504 217.983 -394.82 217.889 -392.601 217.868C-388.161 217.826 -381.579 218.075 -372.994 219.241C-355.824 221.573 -330.647 227.568 -298.587 242.218C-234.468 271.519 -142.827 335.436 -32.6547 473.89C77.4755 612.29 169.049 676.142 233.069 705.398C265.079 720.025 290.202 726.004 307.315 728.328C315.872 729.49 322.427 729.738 326.84 729.696C329.046 729.675 330.717 729.582 331.834 729.494C332.393 729.45 332.814 729.407 333.094 729.376C333.234 729.36 333.339 729.347 333.408 729.338L333.486 729.327L333.505 729.325L333.509 729.324C333.51 729.324 333.51 729.324 333.52 729.393L333.552 729.606C333.579 729.797 333.588 729.858 333.59 729.879C333.591 729.888 333.591 729.889 333.591 729.889L333.585 729.889L333.564 729.892C333.545 729.895 333.518 729.899 333.481 729.903C333.409 729.913 333.301 729.926 333.158 729.942C332.871 729.974 332.444 730.018 331.879 730.062C330.749 730.151 329.065 730.245 326.845 730.266C322.406 730.309 315.823 730.059 307.239 728.893C290.069 726.562 264.892 720.567 232.832 705.916C168.712 676.615 77.0712 612.698 -33.1008 474.245C-143.231 335.844 -234.805 271.992 -298.824 242.737C-330.834 228.109 -355.958 222.13 -373.071 219.806C-381.628 218.644 -388.183 218.396 -392.595 218.438C-394.802 218.459 -396.472 218.553 -397.59 218.641C-398.149 218.685 -398.569 218.727 -398.849 218.759C-398.989 218.775 -399.094 218.788 -399.164 218.797C-399.199 218.801 -399.225 218.805 -399.242 218.807L-399.26 218.81L-399.265 218.81Z" fill="url(#paint0_radial_7_295)"/>
<defs>
<radialGradient id="paint0_radial_7_295" cx="0" cy="0" r="1" gradientUnits="userSpaceOnUse" gradientTransform="translate(-168.999 137.918) rotate(38.768) scale(612.811 642.81)">
<stop stop-color="#9350F2"/>
<stop offset="0.5" stop-color="#D745E3" stop-opacity="0.34"/>
<stop offset="1" stop-color="#9A2FA3" stop-opacity="0.16"/>
</radialGradient>
</defs>
</svg>
